<mxfile host="app.diagrams.net" agent="Mozilla/5.0 (Windows NT 10.0; Win64; x64) AppleWebKit/537.36 (KHTML, like Gecko) Chrome/136.0.0.0 Safari/537.36" version="27.0.6">
  <diagram id="C5RBs43oDa-KdzZeNtuy" name="Page-1">
    <mxGraphModel dx="3664" dy="704" grid="1" gridSize="10" guides="1" tooltips="1" connect="1" arrows="1" fold="1" page="1" pageScale="1" pageWidth="827" pageHeight="1169" math="0" shadow="0">
      <root>
        <mxCell id="WIyWlLk6GJQsqaUBKTNV-0" />
        <mxCell id="WIyWlLk6GJQsqaUBKTNV-1" parent="WIyWlLk6GJQsqaUBKTNV-0" />
        <UserObject label="" plantUmlData="{&#xa;  &quot;data&quot;: &quot;@startuml\n&#39; 定义类\ninterface IStateHandler {\n    + Result arraignment(Long activityId, Enum&lt;Constants.ActivityState&gt; currentStatus)\n    + Result checkPass(Long activityId, Enum&lt;Constants.ActivityState&gt; currentStatus)\n    + Result checkRefuse(Long activityId, Enum&lt;Constants.ActivityState&gt; currentStatus)\n    + Result checkRevoke(Long activityId, Enum&lt;Constants.ActivityState&gt; currentStatus)\n    + Result close(Long activityId, Enum&lt;Constants.ActivityState&gt; currentStatus)\n    + Result open(Long activityId, Enum&lt;Constants.ActivityState&gt; currentStatus)\n    + Result doing(Long activityId, Enum&lt;Constants.ActivityState&gt; currentStatus)\n}\n\nabstract class AbstractState {\n    # IActivityRepository activityRepository\n    + {abstract} Result arraignment(Long activityId, Enum&lt;Constants.ActivityState&gt; currentState)\n    + {abstract} Result checkPass(Long activityId, Enum&lt;Constants.ActivityState&gt; currentState)\n    + {abstract} Result checkRefuse(Long activityId, Enum&lt;Constants.ActivityState&gt; currentState)\n    + {abstract} Result checkRevoke(Long activityId, Enum&lt;Constants.ActivityState&gt; currentState)\n    + {abstract} Result close(Long activityId, Enum&lt;Constants.ActivityState&gt; currentState)\n    + {abstract} Result open(Long activityId, Enum&lt;Constants.ActivityState&gt; currentState)\n    + {abstract} Result doing(Long activityId, Enum&lt;Constants.ActivityState&gt; currentState)\n}\n\nclass StateConfig {\n    # Map&lt;Enum&lt;Constants.ActivityState&gt;, AbstractState&gt; stateGroup\n    # ArraignmentState arraignmentState\n    # CloseState closeState\n    # DoingState doingState\n    # EditingState editingState\n    # OpenState openState\n    # PassState passState\n    # RefuseState refuseState\n    + void init()\n}\n\nclass StateHandlerImpl {\n    + Result arraignment(Long activityId, Enum&lt;Constants.ActivityState&gt; currentStatus)\n    + Result checkPass(Long activityId, Enum&lt;Constants.ActivityState&gt; currentStatus)\n    + Result checkRefuse(Long activityId, Enum&lt;Constants.ActivityState&gt; currentStatus)\n    + Result checkRevoke(Long activityId, Enum&lt;Constants.ActivityState&gt; currentStatus)\n    + Result close(Long activityId, Enum&lt;Constants.ActivityState&gt; currentStatus)\n    + Result open(Long activityId, Enum&lt;Constants.ActivityState&gt; currentStatus)\n    + Result doing(Long activityId, Enum&lt;Constants.ActivityState&gt; currentStatus)\n}\n\nclass ArraignmentState {\n    + Result arraignment(Long activityId, Enum&lt;Constants.ActivityState&gt; currentState)\n    + Result checkPass(Long activityId, Enum&lt;Constants.ActivityState&gt; currentState)\n    + Result checkRefuse(Long activityId, Enum&lt;Constants.ActivityState&gt; currentState)\n    + Result checkRevoke(Long activityId, Enum&lt;Constants.ActivityState&gt; currentState)\n    + Result close(Long activityId, Enum&lt;Constants.ActivityState&gt; currentState)\n    + Result open(Long activityId, Enum&lt;Constants.ActivityState&gt; currentState)\n    + Result doing(Long activityId, Enum&lt;Constants.ActivityState&gt; currentState)\n}\n\nclass RefuseState {\n    + Result arraignment(Long activityId, Enum&lt;Constants.ActivityState&gt; currentState)\n    + Result checkPass(Long activityId, Enum&lt;Constants.ActivityState&gt; currentState)\n    + Result checkRefuse(Long activityId, Enum&lt;Constants.ActivityState&gt; currentState)\n    + Result checkRevoke(Long activityId, Enum&lt;Constants.ActivityState&gt; currentState)\n    + Result close(Long activityId, Enum&lt;Constants.ActivityState&gt; currentState)\n    + Result open(Long activityId, Enum&lt;Constants.ActivityState&gt; currentState)\n    + Result doing(Long activityId, Enum&lt;Constants.ActivityState&gt; currentState)\n}\n\nclass EditingState {\n    + Result arraignment(Long activityId, Enum&lt;Constants.ActivityState&gt; currentState)\n    + Result checkPass(Long activityId, Enum&lt;Constants.ActivityState&gt; currentState)\n    + Result checkRefuse(Long activityId, Enum&lt;Constants.ActivityState&gt; currentState)\n    + Result checkRevoke(Long activityId, Enum&lt;Constants.ActivityState&gt; currentState)\n    + Result close(Long activityId, Enum&lt;Constants.ActivityState&gt; currentState)\n    + Result open(Long activityId, Enum&lt;Constants.ActivityState&gt; currentState)\n    + Result doing(Long activityId, Enum&lt;Constants.ActivityState&gt; currentState)\n}\n\nclass PassState {\n    + Result arraignment(Long activityId, Enum&lt;Constants.ActivityState&gt; currentState)\n    + Result checkPass(Long activityId, Enum&lt;Constants.ActivityState&gt; currentState)\n    + Result checkRefuse(Long activityId, Enum&lt;Constants.ActivityState&gt; currentState)\n    + Result checkRevoke(Long activityId, Enum&lt;Constants.ActivityState&gt; currentState)\n    + Result close(Long activityId, Enum&lt;Constants.ActivityState&gt; currentState)\n    + Result open(Long activityId, Enum&lt;Constants.ActivityState&gt; currentState)\n    + Result doing(Long activityId, Enum&lt;Constants.ActivityState&gt; currentState)\n}\n\nclass OpenState {\n    + Result arraignment(Long activityId, Enum&lt;Constants.ActivityState&gt; currentState)\n    + Result checkPass(Long activityId, Enum&lt;Constants.ActivityState&gt; currentState)\n    + Result checkRefuse(Long activityId, Enum&lt;Constants.ActivityState&gt; currentState)\n    + Result checkRevoke(Long activityId, Enum&lt;Constants.ActivityState&gt; currentState)\n    + Result close(Long activityId, Enum&lt;Constants.ActivityState&gt; currentState)\n    + Result open(Long activityId, Enum&lt;Constants.ActivityState&gt; currentState)\n    + Result doing(Long activityId, Enum&lt;Constants.ActivityState&gt; currentState)\n}\n\nclass DoingState {\n    + Result arraignment(Long activityId, Enum&lt;Constants.ActivityState&gt; currentState)\n    + Result checkPass(Long activityId, Enum&lt;Constants.ActivityState&gt; currentState)\n    + Result checkRefuse(Long activityId, Enum&lt;Constants.ActivityState&gt; currentState)\n    + Result checkRevoke(Long activityId, Enum&lt;Constants.ActivityState&gt; currentState)\n    + Result close(Long activityId, Enum&lt;Constants.ActivityState&gt; currentState)\n    + Result open(Long activityId, Enum&lt;Constants.ActivityState&gt; currentState)\n    + Result doing(Long activityId, Enum&lt;Constants.ActivityState&gt; currentState)\n}\n\nclass CloseState {\n    + Result arraignment(Long activityId, Enum&lt;Constants.ActivityState&gt; currentState)\n    + Result checkPass(Long activityId, Enum&lt;Constants.ActivityState&gt; currentState)\n    + Result checkRefuse(Long activityId, Enum&lt;Constants.ActivityState&gt; currentState)\n    + Result checkRevoke(Long activityId, Enum&lt;Constants.ActivityState&gt; currentState)\n    + Result close(Long activityId, Enum&lt;Constants.ActivityState&gt; currentState)\n    + Result open(Long activityId, Enum&lt;Constants.ActivityState&gt; currentState)\n    + Result doing(Long activityId, Enum&lt;Constants.ActivityState&gt; currentState)\n}\n\n&#39; 定义继承关系\nAbstractState &lt;|-- ArraignmentState\nAbstractState &lt;|-- RefuseState\nAbstractState &lt;|-- EditingState\nAbstractState &lt;|-- PassState\nAbstractState &lt;|-- OpenState\nAbstractState &lt;|-- DoingState\nAbstractState &lt;|-- CloseState\n\n&#39; 定义实现关系\nIStateHandler &lt;|.. StateHandlerImpl\n\n&#39; 定义组合关系\nStateConfig \&quot;1\&quot; *-- \&quot;1\&quot; ArraignmentState\nStateConfig \&quot;1\&quot; *-- \&quot;1\&quot; RefuseState\nStateConfig \&quot;1\&quot; *-- \&quot;1\&quot; EditingState\nStateConfig \&quot;1\&quot; *-- \&quot;1\&quot; PassState\nStateConfig \&quot;1\&quot; *-- \&quot;1\&quot; OpenState\nStateConfig \&quot;1\&quot; *-- \&quot;1\&quot; DoingState\nStateConfig \&quot;1\&quot; *-- \&quot;1\&quot; CloseState\n\n&#39; 定义继承关系\nStateConfig &lt;|-- StateHandlerImpl\n\n@enduml\n&quot;,&#xa;  &quot;format&quot;: &quot;svg&quot;&#xa;}" id="cW-mFz5MNRjEaA02KynR-0">
          <mxCell style="shape=image;noLabel=1;verticalAlign=top;aspect=fixed;imageAspect=0;image=data:image/svg+xml,PHN2ZyB4bWxucz0iaHR0cDovL3d3dy53My5vcmcvMjAwMC9zdmciIHhtbG5zOnhsaW5rPSJodHRwOi8vd3d3LnczLm9yZy8xOTk5L3hsaW5rIiBjb250ZW50U3R5bGVUeXBlPSJ0ZXh0L2NzcyIgZGF0YS1kaWFncmFtLXR5cGU9IkNMQVNTIiBoZWlnaHQ9IjQwOXB4IiBwcmVzZXJ2ZUFzcGVjdFJhdGlvPSJub25lIiBzdHlsZT0id2lkdGg6NDg5OHB4O2hlaWdodDo0MDlweDtiYWNrZ3JvdW5kOiNGRkZGRkY7IiB2ZXJzaW9uPSIxLjEiIHZpZXdCb3g9IjAgMCA0ODk4IDQwOSIgd2lkdGg9IjQ4OThweCIgem9vbUFuZFBhbj0ibWFnbmlmeSI+PGRlZnMvPjxnPjwhLS1jbGFzcyBJU3RhdGVIYW5kbGVyLS0+PGcgY2xhc3M9ImVudGl0eSIgZGF0YS1lbnRpdHk9IklTdGF0ZUhhbmRsZXIiIGRhdGEtc291cmNlLWxpbmU9IjIiIGRhdGEtdWlkPSJlbnQwMDAyIiBpZD0iZW50aXR5X0lTdGF0ZUhhbmRsZXIiPjxyZWN0IGZpbGw9IiNGMUYxRjEiIGhlaWdodD0iMTUyLjg5MDYiIHJ4PSIyLjUiIHJ5PSIyLjUiIHN0eWxlPSJzdHJva2U6IzE4MTgxODtzdHJva2Utd2lkdGg6MC41OyIgd2lkdGg9IjU4NiIgeD0iNyIgeT0iMjIiLz48ZWxsaXBzZSBjeD0iMjUwLjI1IiBjeT0iMzgiIGZpbGw9IiNCNEE3RTUiIHJ4PSIxMSIgcnk9IjExIiBzdHlsZT0ic3Ryb2tlOiMxODE4MTg7c3Ryb2tlLXdpZHRoOjE7Ii8+PHBhdGggZD0iTTI1My4zNzUsNDQgTDI1My4zNzUsNDIuMjUgTDI1MS4yNSw0Mi4yNSBRMjUxLjI1LDQyLjI1IDI1MS4yNSwzNC40Mzc1IEwyNTMuMzc1LDM0LjQzNzUgTDI1My4zNzUsMzIuNjg3NSBMMjQ3LjM3NSwzMi42ODc1IEwyNDcuMzc1LDM0LjQzNzUgTDI0OS41LDM0LjQzNzUgUTI0OS41LDM0LjQzNzUgMjQ5LjUsNDIuMjUgTDI0Ny4zNzUsNDIuMjUgTDI0Ny4zNzUsNDQgTDI1My4zNzUsNDQgWiAiIGZpbGw9IiMwMDAwMDAiLz48dGV4dCBmaWxsPSIjMDAwMDAwIiBmb250LWZhbWlseT0ic2Fucy1zZXJpZiIgZm9udC1zaXplPSIxNCIgZm9udC1zdHlsZT0iaXRhbGljIiBsZW5ndGhBZGp1c3Q9InNwYWNpbmciIHRleHRMZW5ndGg9IjkxIiB4PSIyNzAuNzUiIHk9IjQzLjc0MjIiPklTdGF0ZUhhbmRsZXI8L3RleHQ+PGxpbmUgc3R5bGU9InN0cm9rZTojMTgxODE4O3N0cm9rZS13aWR0aDowLjU7IiB4MT0iOCIgeDI9IjU5MiIgeTE9IjU0IiB5Mj0iNTQiLz48bGluZSBzdHlsZT0ic3Ryb2tlOiMxODE4MTg7c3Ryb2tlLXdpZHRoOjAuNTsiIHgxPSI4IiB4Mj0iNTkyIiB5MT0iNjIiIHkyPSI2MiIvPjxlbGxpcHNlIGN4PSIxOCIgY3k9Ijc0Ljk5MjIiIGZpbGw9IiM4NEJFODQiIHJ4PSIzIiByeT0iMyIgc3R5bGU9InN0cm9rZTojMDM4MDQ4O3N0cm9rZS13aWR0aDoxOyIvPjx0ZXh0IGZpbGw9IiMwMDAwMDAiIGZvbnQtZmFtaWx5PSJzYW5zLXNlcmlmIiBmb250LXNpemU9IjE0IiBsZW5ndGhBZGp1c3Q9InNwYWNpbmciIHRleHRMZW5ndGg9IjU2MCIgeD0iMjciIHk9Ijc5LjIzNDQiPlJlc3VsdCBhcnJhaWdubWVudChMb25nIGFjdGl2aXR5SWQsIEVudW0mbHQ7Q29uc3RhbnRzLkFjdGl2aXR5U3RhdGUmZ3Q7IGN1cnJlbnRTdGF0dXMpPC90ZXh0PjxlbGxpcHNlIGN4PSIxOCIgY3k9Ijg5Ljk3NjYiIGZpbGw9IiM4NEJFODQiIHJ4PSIzIiByeT0iMyIgc3R5bGU9InN0cm9rZTojMDM4MDQ4O3N0cm9rZS13aWR0aDoxOyIvPjx0ZXh0IGZpbGw9IiMwMDAwMDAiIGZvbnQtZmFtaWx5PSJzYW5zLXNlcmlmIiBmb250LXNpemU9IjE0IiBsZW5ndGhBZGp1c3Q9InNwYWNpbmciIHRleHRMZW5ndGg9IjU0NiIgeD0iMjciIHk9Ijk0LjIxODgiPlJlc3VsdCBjaGVja1Bhc3MoTG9uZyBhY3Rpdml0eUlkLCBFbnVtJmx0O0NvbnN0YW50cy5BY3Rpdml0eVN0YXRlJmd0OyBjdXJyZW50U3RhdHVzKTwvdGV4dD48ZWxsaXBzZSBjeD0iMTgiIGN5PSIxMDQuOTYwOSIgZmlsbD0iIzg0QkU4NCIgcng9IjMiIHJ5PSIzIiBzdHlsZT0ic3Ryb2tlOiMwMzgwNDg7c3Ryb2tlLXdpZHRoOjE7Ii8+PHRleHQgZmlsbD0iIzAwMDAwMCIgZm9udC1mYW1pbHk9InNhbnMtc2VyaWYiIGZvbnQtc2l6ZT0iMTQiIGxlbmd0aEFkanVzdD0ic3BhY2luZyIgdGV4dExlbmd0aD0iNTYwIiB4PSIyNyIgeT0iMTA5LjIwMzEiPlJlc3VsdCBjaGVja1JlZnVzZShMb25nIGFjdGl2aXR5SWQsIEVudW0mbHQ7Q29uc3RhbnRzLkFjdGl2aXR5U3RhdGUmZ3Q7IGN1cnJlbnRTdGF0dXMpPC90ZXh0PjxlbGxpcHNlIGN4PSIxOCIgY3k9IjExOS45NDUzIiBmaWxsPSIjODRCRTg0IiByeD0iMyIgcnk9IjMiIHN0eWxlPSJzdHJva2U6IzAzODA0ODtzdHJva2Utd2lkdGg6MTsiLz48dGV4dCBmaWxsPSIjMDAwMDAwIiBmb250LWZhbWlseT0ic2Fucy1zZXJpZiIgZm9udC1zaXplPSIxNCIgbGVuZ3RoQWRqdXN0PSJzcGFjaW5nIiB0ZXh0TGVuZ3RoPSI1NjAiIHg9IjI3IiB5PSIxMjQuMTg3NSI+UmVzdWx0IGNoZWNrUmV2b2tlKExvbmcgYWN0aXZpdHlJZCwgRW51bSZsdDtDb25zdGFudHMuQWN0aXZpdHlTdGF0ZSZndDsgY3VycmVudFN0YXR1cyk8L3RleHQ+PGVsbGlwc2UgY3g9IjE4IiBjeT0iMTM0LjkyOTciIGZpbGw9IiM4NEJFODQiIHJ4PSIzIiByeT0iMyIgc3R5bGU9InN0cm9rZTojMDM4MDQ4O3N0cm9rZS13aWR0aDoxOyIvPjx0ZXh0IGZpbGw9IiMwMDAwMDAiIGZvbnQtZmFtaWx5PSJzYW5zLXNlcmlmIiBmb250LXNpemU9IjE0IiBsZW5ndGhBZGp1c3Q9InNwYWNpbmciIHRleHRMZW5ndGg9IjUxOCIgeD0iMjciIHk9IjEzOS4xNzE5Ij5SZXN1bHQgY2xvc2UoTG9uZyBhY3Rpdml0eUlkLCBFbnVtJmx0O0NvbnN0YW50cy5BY3Rpdml0eVN0YXRlJmd0OyBjdXJyZW50U3RhdHVzKTwvdGV4dD48ZWxsaXBzZSBjeD0iMTgiIGN5PSIxNDkuOTE0MSIgZmlsbD0iIzg0QkU4NCIgcng9IjMiIHJ5PSIzIiBzdHlsZT0ic3Ryb2tlOiMwMzgwNDg7c3Ryb2tlLXdpZHRoOjE7Ii8+PHRleHQgZmlsbD0iIzAwMDAwMCIgZm9udC1mYW1pbHk9InNhbnMtc2VyaWYiIGZvbnQtc2l6ZT0iMTQiIGxlbmd0aEFkanVzdD0ic3BhY2luZyIgdGV4dExlbmd0aD0iNTExIiB4PSIyNyIgeT0iMTU0LjE1NjMiPlJlc3VsdCBvcGVuKExvbmcgYWN0aXZpdHlJZCwgRW51bSZsdDtDb25zdGFudHMuQWN0aXZpdHlTdGF0ZSZndDsgY3VycmVudFN0YXR1cyk8L3RleHQ+PGVsbGlwc2UgY3g9IjE4IiBjeT0iMTY0Ljg5ODQiIGZpbGw9IiM4NEJFODQiIHJ4PSIzIiByeT0iMyIgc3R5bGU9InN0cm9rZTojMDM4MDQ4O3N0cm9rZS13aWR0aDoxOyIvPjx0ZXh0IGZpbGw9IiMwMDAwMDAiIGZvbnQtZmFtaWx5PSJzYW5zLXNlcmlmIiBmb250LXNpemU9IjE0IiBsZW5ndGhBZGp1c3Q9InNwYWNpbmciIHRleHRMZW5ndGg9IjUxOCIgeD0iMjciIHk9IjE2OS4xNDA2Ij5SZXN1bHQgZG9pbmcoTG9uZyBhY3Rpdml0eUlkLCBFbnVtJmx0O0NvbnN0YW50cy5BY3Rpdml0eVN0YXRlJmd0OyBjdXJyZW50U3RhdHVzKTwvdGV4dD48L2c+PCEtLWNsYXNzIEFic3RyYWN0U3RhdGUtLT48ZyBjbGFzcz0iZW50aXR5IiBkYXRhLWVudGl0eT0iQWJzdHJhY3RTdGF0ZSIgZGF0YS1zb3VyY2UtbGluZT0iMTIiIGRhdGEtdWlkPSJlbnQwMDAzIiBpZD0iZW50aXR5X0Fic3RyYWN0U3RhdGUiPjxyZWN0IGZpbGw9IiNGMUYxRjEiIGhlaWdodD0iMTY3Ljg3NSIgcng9IjIuNSIgcnk9IjIuNSIgc3R5bGU9InN0cm9rZTojMTgxODE4O3N0cm9rZS13aWR0aDowLjU7IiB3aWR0aD0iNTc5IiB4PSIyNDcwLjUiIHk9IjE0LjUiLz48ZWxsaXBzZSBjeD0iMjcxMC4yNSIgY3k9IjMwLjUiIGZpbGw9IiNBOURDREYiIHJ4PSIxMSIgcnk9IjExIiBzdHlsZT0ic3Ryb2tlOiMxODE4MTg7c3Ryb2tlLXdpZHRoOjE7Ii8+PHBhdGggZD0iTTI3MDYuODEyNSwyOC4xMjUgTDI3MDYuODEyNSwzNi4yNSBMMjcwOC41NjI1LDM2LjI1IFEyNzA4LjU2MjUsMzYuMjUgMjcwOC41NjI1LDMyIEwyNzEyLjEyNSwzMiBRMjcxMi4xMjUsMzIgMjcxMi4xMjUsMzYuMjUgTDI3MTMuODc1LDM2LjI1IEwyNzEzLjg3NSwyOC4xMjUgTDI3MTIuMTI1LDI4LjEyNSBRMjcxMi4xMjUsMjguMTI1IDI3MTIuMTI1LDMwLjI1IEwyNzA4LjU2MjUsMzAuMjUgUTI3MDguNTYyNSwzMC4yNSAyNzA4LjU2MjUsMjguMTI1IEwyNzA2LjgxMjUsMjguMTI1IFogTTI3MDcuODc1LDI4LjgxMjUgTDI3MDkuNjI1LDI4LjgxMjUgUTI3MDkuNjI1LDI4LjgxMjUgMjcwOS42MjUsMjYgTDI3MDcuODc1LDI2IFEyNzA3Ljg3NSwyNiAyNzA3Ljg3NSwyOC44MTI1IFogTTI3MTIuODEyNSwyOC44MTI1IFEyNzEyLjgxMjUsMjguODEyNSAyNzEyLjgxMjUsMjYgTDI3MTEuMDYyNSwyNiBRMjcxMS4wNjI1LDI2IDI3MTEuMDYyNSwyOC44MTI1IEwyNzEyLjgxMjUsMjguODEyNSBaIE0yNzA4LjkzNzUsMjYuNjg3NSBMMjcxMS43NSwyNi42ODc1IEwyNzExLjc1LDI0LjkzNzUgTDI3MDguOTM3NSwyNC45Mzc1IEwyNzA4LjkzNzUsMjYuNjg3NSBaICIgZmlsbD0iIzAwMDAwMCIvPjx0ZXh0IGZpbGw9IiMwMDAwMDAiIGZvbnQtZmFtaWx5PSJzYW5zLXNlcmlmIiBmb250LXNpemU9IjE0IiBmb250LXN0eWxlPSJpdGFsaWMiIGxlbmd0aEFkanVzdD0ic3BhY2luZyIgdGV4dExlbmd0aD0iOTEiIHg9IjI3MzAuNzUiIHk9IjM2LjI0MjIiPkFic3RyYWN0U3RhdGU8L3RleHQ+PGxpbmUgc3R5bGU9InN0cm9rZTojMTgxODE4O3N0cm9rZS13aWR0aDowLjU7IiB4MT0iMjQ3MS41IiB4Mj0iMzA0OC41IiB5MT0iNDYuNSIgeTI9IjQ2LjUiLz48cG9seWdvbiBmaWxsPSJub25lIiBwb2ludHM9IjI0ODEuNSw1NC40OTIyLDI0ODUuNSw1OC40OTIyLDI0ODEuNSw2Mi40OTIyLDI0NzcuNSw1OC40OTIyIiBzdHlsZT0ic3Ryb2tlOiNCMzhEMjI7c3Ryb2tlLXdpZHRoOjE7Ii8+PHRleHQgZmlsbD0iIzAwMDAwMCIgZm9udC1mYW1pbHk9InNhbnMtc2VyaWYiIGZvbnQtc2l6ZT0iMTQiIGxlbmd0aEFkanVzdD0ic3BhY2luZyIgdGV4dExlbmd0aD0iMjY2IiB4PSIyNDkwLjUiIHk9IjYzLjczNDQiPklBY3Rpdml0eVJlcG9zaXRvcnkgYWN0aXZpdHlSZXBvc2l0b3J5PC90ZXh0PjxsaW5lIHN0eWxlPSJzdHJva2U6IzE4MTgxODtzdHJva2Utd2lkdGg6MC41OyIgeDE9IjI0NzEuNSIgeDI9IjMwNDguNSIgeTE9IjY5LjQ4NDQiIHkyPSI2OS40ODQ0Ii8+PGVsbGlwc2UgY3g9IjI0ODEuNSIgY3k9IjgyLjQ3NjYiIGZpbGw9IiM4NEJFODQiIHJ4PSIzIiByeT0iMyIgc3R5bGU9InN0cm9rZTojMDM4MDQ4O3N0cm9rZS13aWR0aDoxOyIvPjx0ZXh0IGZpbGw9IiMwMDAwMDAiIGZvbnQtZmFtaWx5PSJzYW5zLXNlcmlmIiBmb250LXNpemU9IjE0IiBmb250LXN0eWxlPSJpdGFsaWMiIGxlbmd0aEFkanVzdD0ic3BhY2luZyIgdGV4dExlbmd0aD0iNTUzIiB4PSIyNDkwLjUiIHk9Ijg2LjcxODgiPlJlc3VsdCBhcnJhaWdubWVudChMb25nIGFjdGl2aXR5SWQsIEVudW0mbHQ7Q29uc3RhbnRzLkFjdGl2aXR5U3RhdGUmZ3Q7IGN1cnJlbnRTdGF0ZSk8L3RleHQ+PGVsbGlwc2UgY3g9IjI0ODEuNSIgY3k9Ijk3LjQ2MDkiIGZpbGw9IiM4NEJFODQiIHJ4PSIzIiByeT0iMyIgc3R5bGU9InN0cm9rZTojMDM4MDQ4O3N0cm9rZS13aWR0aDoxOyIvPjx0ZXh0IGZpbGw9IiMwMDAwMDAiIGZvbnQtZmFtaWx5PSJzYW5zLXNlcmlmIiBmb250LXNpemU9IjE0IiBmb250LXN0eWxlPSJpdGFsaWMiIGxlbmd0aEFkanVzdD0ic3BhY2luZyIgdGV4dExlbmd0aD0iNTM5IiB4PSIyNDkwLjUiIHk9IjEwMS43MDMxIj5SZXN1bHQgY2hlY2tQYXNzKExvbmcgYWN0aXZpdHlJZCwgRW51bSZsdDtDb25zdGFudHMuQWN0aXZpdHlTdGF0ZSZndDsgY3VycmVudFN0YXRlKTwvdGV4dD48ZWxsaXBzZSBjeD0iMjQ4MS41IiBjeT0iMTEyLjQ0NTMiIGZpbGw9IiM4NEJFODQiIHJ4PSIzIiByeT0iMyIgc3R5bGU9InN0cm9rZTojMDM4MDQ4O3N0cm9rZS13aWR0aDoxOyIvPjx0ZXh0IGZpbGw9IiMwMDAwMDAiIGZvbnQtZmFtaWx5PSJzYW5zLXNlcmlmIiBmb250LXNpemU9IjE0IiBmb250LXN0eWxlPSJpdGFsaWMiIGxlbmd0aEFkanVzdD0ic3BhY2luZyIgdGV4dExlbmd0aD0iNTUzIiB4PSIyNDkwLjUiIHk9IjExNi42ODc1Ij5SZXN1bHQgY2hlY2tSZWZ1c2UoTG9uZyBhY3Rpdml0eUlkLCBFbnVtJmx0O0NvbnN0YW50cy5BY3Rpdml0eVN0YXRlJmd0OyBjdXJyZW50U3RhdGUpPC90ZXh0PjxlbGxpcHNlIGN4PSIyNDgxLjUiIGN5PSIxMjcuNDI5NyIgZmlsbD0iIzg0QkU4NCIgcng9IjMiIHJ5PSIzIiBzdHlsZT0ic3Ryb2tlOiMwMzgwNDg7c3Ryb2tlLXdpZHRoOjE7Ii8+PHRleHQgZmlsbD0iIzAwMDAwMCIgZm9udC1mYW1pbHk9InNhbnMtc2VyaWYiIGZvbnQtc2l6ZT0iMTQiIGZvbnQtc3R5bGU9Iml0YWxpYyIgbGVuZ3RoQWRqdXN0PSJzcGFjaW5nIiB0ZXh0TGVuZ3RoPSI1NTMiIHg9IjI0OTAuNSIgeT0iMTMxLjY3MTkiPlJlc3VsdCBjaGVja1Jldm9rZShMb25nIGFjdGl2aXR5SWQsIEVudW0mbHQ7Q29uc3RhbnRzLkFjdGl2aXR5U3RhdGUmZ3Q7IGN1cnJlbnRTdGF0ZSk8L3RleHQ+PGVsbGlwc2UgY3g9IjI0ODEuNSIgY3k9IjE0Mi40MTQxIiBmaWxsPSIjODRCRTg0IiByeD0iMyIgcnk9IjMiIHN0eWxlPSJzdHJva2U6IzAzODA0ODtzdHJva2Utd2lkdGg6MTsiLz48dGV4dCBmaWxsPSIjMDAwMDAwIiBmb250LWZhbWlseT0ic2Fucy1zZXJpZiIgZm9udC1zaXplPSIxNCIgZm9udC1zdHlsZT0iaXRhbGljIiBsZW5ndGhBZGp1c3Q9InNwYWNpbmciIHRleHRMZW5ndGg9IjUxMSIgeD0iMjQ5MC41IiB5PSIxNDYuNjU2MyI+UmVzdWx0IGNsb3NlKExvbmcgYWN0aXZpdHlJZCwgRW51bSZsdDtDb25zdGFudHMuQWN0aXZpdHlTdGF0ZSZndDsgY3VycmVudFN0YXRlKTwvdGV4dD48ZWxsaXBzZSBjeD0iMjQ4MS41IiBjeT0iMTU3LjM5ODQiIGZpbGw9IiM4NEJFODQiIHJ4PSIzIiByeT0iMyIgc3R5bGU9InN0cm9rZTojMDM4MDQ4O3N0cm9rZS13aWR0aDoxOyIvPjx0ZXh0IGZpbGw9IiMwMDAwMDAiIGZvbnQtZmFtaWx5PSJzYW5zLXNlcmlmIiBmb250LXNpemU9IjE0IiBmb250LXN0eWxlPSJpdGFsaWMiIGxlbmd0aEFkanVzdD0ic3BhY2luZyIgdGV4dExlbmd0aD0iNTA0IiB4PSIyNDkwLjUiIHk9IjE2MS42NDA2Ij5SZXN1bHQgb3BlbihMb25nIGFjdGl2aXR5SWQsIEVudW0mbHQ7Q29uc3RhbnRzLkFjdGl2aXR5U3RhdGUmZ3Q7IGN1cnJlbnRTdGF0ZSk8L3RleHQ+PGVsbGlwc2UgY3g9IjI0ODEuNSIgY3k9IjE3Mi4zODI4IiBmaWxsPSIjODRCRTg0IiByeD0iMyIgcnk9IjMiIHN0eWxlPSJzdHJva2U6IzAzODA0ODtzdHJva2Utd2lkdGg6MTsiLz48dGV4dCBmaWxsPSIjMDAwMDAwIiBmb250LWZhbWlseT0ic2Fucy1zZXJpZiIgZm9udC1zaXplPSIxNCIgZm9udC1zdHlsZT0iaXRhbGljIiBsZW5ndGhBZGp1c3Q9InNwYWNpbmciIHRleHRMZW5ndGg9IjUxMSIgeD0iMjQ5MC41IiB5PSIxNzYuNjI1Ij5SZXN1bHQgZG9pbmcoTG9uZyBhY3Rpdml0eUlkLCBFbnVtJmx0O0NvbnN0YW50cy5BY3Rpdml0eVN0YXRlJmd0OyBjdXJyZW50U3RhdGUpPC90ZXh0PjwvZz48IS0tY2xhc3MgU3RhdGVDb25maWctLT48ZyBjbGFzcz0iZW50aXR5IiBkYXRhLWVudGl0eT0iU3RhdGVDb25maWciIGRhdGEtc291cmNlLWxpbmU9IjIzIiBkYXRhLXVpZD0iZW50MDAwNCIgaWQ9ImVudGl0eV9TdGF0ZUNvbmZpZyI+PHJlY3QgZmlsbD0iI0YxRjFGMSIgaGVpZ2h0PSIxODIuODU5NCIgcng9IjIuNSIgcnk9IjIuNSIgc3R5bGU9InN0cm9rZTojMTgxODE4O3N0cm9rZS13aWR0aDowLjU7IiB3aWR0aD0iNDQ2IiB4PSIxOTU2IiB5PSI3Ii8+PGVsbGlwc2UgY3g9IjIxMzYuMjUiIGN5PSIyMyIgZmlsbD0iI0FERDFCMiIgcng9IjExIiByeT0iMTEiIHN0eWxlPSJzdHJva2U6IzE4MTgxODtzdHJva2Utd2lkdGg6MTsiLz48cGF0aCBkPSJNMjEzMy44NzUsMjcuMjUgTDIxMzMuODc1LDI5IEwyMTM4LjgxMjUsMjkgTDIxMzguODEyNSwyNy4yNSBMMjEzMy44NzUsMjcuMjUgWiBNMjEzNC41NjI1LDI3LjkzNzUgUTIxMzQuNTYyNSwyNy45Mzc1IDIxMzQuNTYyNSwxOC43NSBMMjEzMi44MTI1LDE4Ljc1IFEyMTMyLjgxMjUsMTguNzUgMjEzMi44MTI1LDI3LjkzNzUgTDIxMzQuNTYyNSwyNy45Mzc1IFogTTIxMzguMTI1LDI3LjkzNzUgTDIxMzkuODc1LDI3LjkzNzUgUTIxMzkuODc1LDI3LjkzNzUgMjEzOS44NzUsMjUuMTI1IEwyMTM4LjEyNSwyNS4xMjUgUTIxMzguMTI1LDI1LjEyNSAyMTM4LjEyNSwyNy45Mzc1IFogTTIxMzguMTI1LDE4Ljc1IFEyMTM4LjEyNSwxOC43NSAyMTM4LjEyNSwyMS41NjI1IEwyMTM5Ljg3NSwyMS41NjI1IFEyMTM5Ljg3NSwyMS41NjI1IDIxMzkuODc1LDE4Ljc1IEwyMTM4LjEyNSwxOC43NSBaIE0yMTMzLjg3NSwxOS40Mzc1IEwyMTM4LjgxMjUsMTkuNDM3NSBMMjEzOC44MTI1LDE3LjY4NzUgTDIxMzMuODc1LDE3LjY4NzUgTDIxMzMuODc1LDE5LjQzNzUgWiAiIGZpbGw9IiMwMDAwMDAiLz48dGV4dCBmaWxsPSIjMDAwMDAwIiBmb250LWZhbWlseT0ic2Fucy1zZXJpZiIgZm9udC1zaXplPSIxNCIgbGVuZ3RoQWRqdXN0PSJzcGFjaW5nIiB0ZXh0TGVuZ3RoPSI3NyIgeD0iMjE1Ni43NSIgeT0iMjguNzQyMiI+U3RhdGVDb25maWc8L3RleHQ+PGxpbmUgc3R5bGU9InN0cm9rZTojMTgxODE4O3N0cm9rZS13aWR0aDowLjU7IiB4MT0iMTk1NyIgeDI9IjI0MDEiIHkxPSIzOSIgeTI9IjM5Ii8+PHBvbHlnb24gZmlsbD0ibm9uZSIgcG9pbnRzPSIxOTY3LDQ2Ljk5MjIsMTk3MSw1MC45OTIyLDE5NjcsNTQuOTkyMiwxOTYzLDUwLjk5MjIiIHN0eWxlPSJzdHJva2U6I0IzOEQyMjtzdHJva2Utd2lkdGg6MTsiLz48dGV4dCBmaWxsPSIjMDAwMDAwIiBmb250LWZhbWlseT0ic2Fucy1zZXJpZiIgZm9udC1zaXplPSIxNCIgbGVuZ3RoQWRqdXN0PSJzcGFjaW5nIiB0ZXh0TGVuZ3RoPSI0MjAiIHg9IjE5NzYiIHk9IjU2LjIzNDQiPk1hcCZsdDtFbnVtJmx0O0NvbnN0YW50cy5BY3Rpdml0eVN0YXRlJmd0OywgQWJzdHJhY3RTdGF0ZSZndDsgc3RhdGVHcm91cDwvdGV4dD48cG9seWdvbiBmaWxsPSJub25lIiBwb2ludHM9IjE5NjcsNjEuOTc2NiwxOTcxLDY1Ljk3NjYsMTk2Nyw2OS45NzY2LDE5NjMsNjUuOTc2NiIgc3R5bGU9InN0cm9rZTojQjM4RDIyO3N0cm9rZS13aWR0aDoxOyIvPjx0ZXh0IGZpbGw9IiMwMDAwMDAiIGZvbnQtZmFtaWx5PSJzYW5zLXNlcmlmIiBmb250LXNpemU9IjE0IiBsZW5ndGhBZGp1c3Q9InNwYWNpbmciIHRleHRMZW5ndGg9IjIzMSIgeD0iMTk3NiIgeT0iNzEuMjE4OCI+QXJyYWlnbm1lbnRTdGF0ZSBhcnJhaWdubWVudFN0YXRlPC90ZXh0Pjxwb2x5Z29uIGZpbGw9Im5vbmUiIHBvaW50cz0iMTk2Nyw3Ni45NjA5LDE5NzEsODAuOTYwOSwxOTY3LDg0Ljk2MDksMTk2Myw4MC45NjA5IiBzdHlsZT0ic3Ryb2tlOiNCMzhEMjI7c3Ryb2tlLXdpZHRoOjE7Ii8+PHRleHQgZmlsbD0iIzAwMDAwMCIgZm9udC1mYW1pbHk9InNhbnMtc2VyaWYiIGZvbnQtc2l6ZT0iMTQiIGxlbmd0aEFkanVzdD0ic3BhY2luZyIgdGV4dExlbmd0aD0iMTQ3IiB4PSIxOTc2IiB5PSI4Ni4yMDMxIj5DbG9zZVN0YXRlIGNsb3NlU3RhdGU8L3RleHQ+PHBvbHlnb24gZmlsbD0ibm9uZSIgcG9pbnRzPSIxOTY3LDkxLjk0NTMsMTk3MSw5NS45NDUzLDE5NjcsOTkuOTQ1MywxOTYzLDk1Ljk0NTMiIHN0eWxlPSJzdHJva2U6I0IzOEQyMjtzdHJva2Utd2lkdGg6MTsiLz48dGV4dCBmaWxsPSIjMDAwMDAwIiBmb250LWZhbWlseT0ic2Fucy1zZXJpZiIgZm9udC1zaXplPSIxNCIgbGVuZ3RoQWRqdXN0PSJzcGFjaW5nIiB0ZXh0TGVuZ3RoPSIxNDciIHg9IjE5NzYiIHk9IjEwMS4xODc1Ij5Eb2luZ1N0YXRlIGRvaW5nU3RhdGU8L3RleHQ+PHBvbHlnb24gZmlsbD0ibm9uZSIgcG9pbnRzPSIxOTY3LDEwNi45Mjk3LDE5NzEsMTEwLjkyOTcsMTk2NywxMTQuOTI5NywxOTYzLDExMC45Mjk3IiBzdHlsZT0ic3Ryb2tlOiNCMzhEMjI7c3Ryb2tlLXdpZHRoOjE7Ii8+PHRleHQgZmlsbD0iIzAwMDAwMCIgZm9udC1mYW1pbHk9InNhbnMtc2VyaWYiIGZvbnQtc2l6ZT0iMTQiIGxlbmd0aEFkanVzdD0ic3BhY2luZyIgdGV4dExlbmd0aD0iMTc1IiB4PSIxOTc2IiB5PSIxMTYuMTcxOSI+RWRpdGluZ1N0YXRlIGVkaXRpbmdTdGF0ZTwvdGV4dD48cG9seWdvbiBmaWxsPSJub25lIiBwb2ludHM9IjE5NjcsMTIxLjkxNDEsMTk3MSwxMjUuOTE0MSwxOTY3LDEyOS45MTQxLDE5NjMsMTI1LjkxNDEiIHN0eWxlPSJzdHJva2U6I0IzOEQyMjtzdHJva2Utd2lkdGg6MTsiLz48dGV4dCBmaWxsPSIjMDAwMDAwIiBmb250LWZhbWlseT0ic2Fucy1zZXJpZiIgZm9udC1zaXplPSIxNCIgbGVuZ3RoQWRqdXN0PSJzcGFjaW5nIiB0ZXh0TGVuZ3RoPSIxMzMiIHg9IjE5NzYiIHk9IjEzMS4xNTYzIj5PcGVuU3RhdGUgb3BlblN0YXRlPC90ZXh0Pjxwb2x5Z29uIGZpbGw9Im5vbmUiIHBvaW50cz0iMTk2NywxMzYuODk4NCwxOTcxLDE0MC44OTg0LDE5NjcsMTQ0Ljg5ODQsMTk2MywxNDAuODk4NCIgc3R5bGU9InN0cm9rZTojQjM4RDIyO3N0cm9rZS13aWR0aDoxOyIvPjx0ZXh0IGZpbGw9IiMwMDAwMDAiIGZvbnQtZmFtaWx5PSJzYW5zLXNlcmlmIiBmb250LXNpemU9IjE0IiBsZW5ndGhBZGp1c3Q9InNwYWNpbmciIHRleHRMZW5ndGg9IjEzMyIgeD0iMTk3NiIgeT0iMTQ2LjE0MDYiPlBhc3NTdGF0ZSBwYXNzU3RhdGU8L3RleHQ+PHBvbHlnb24gZmlsbD0ibm9uZSIgcG9pbnRzPSIxOTY3LDE1MS44ODI4LDE5NzEsMTU1Ljg4MjgsMTk2NywxNTkuODgyOCwxOTYzLDE1NS44ODI4IiBzdHlsZT0ic3Ryb2tlOiNCMzhEMjI7c3Ryb2tlLXdpZHRoOjE7Ii8+PHRleHQgZmlsbD0iIzAwMDAwMCIgZm9udC1mYW1pbHk9InNhbnMtc2VyaWYiIGZvbnQtc2l6ZT0iMTQiIGxlbmd0aEFkanVzdD0ic3BhY2luZyIgdGV4dExlbmd0aD0iMTYxIiB4PSIxOTc2IiB5PSIxNjEuMTI1Ij5SZWZ1c2VTdGF0ZSByZWZ1c2VTdGF0ZTwvdGV4dD48bGluZSBzdHlsZT0ic3Ryb2tlOiMxODE4MTg7c3Ryb2tlLXdpZHRoOjAuNTsiIHgxPSIxOTU3IiB4Mj0iMjQwMSIgeTE9IjE2Ni44NzUiIHkyPSIxNjYuODc1Ii8+PGVsbGlwc2UgY3g9IjE5NjciIGN5PSIxNzkuODY3MiIgZmlsbD0iIzg0QkU4NCIgcng9IjMiIHJ5PSIzIiBzdHlsZT0ic3Ryb2tlOiMwMzgwNDg7c3Ryb2tlLXdpZHRoOjE7Ii8+PHRleHQgZmlsbD0iIzAwMDAwMCIgZm9udC1mYW1pbHk9InNhbnMtc2VyaWYiIGZvbnQtc2l6ZT0iMTQiIGxlbmd0aEFkanVzdD0ic3BhY2luZyIgdGV4dExlbmd0aD0iNzciIHg9IjE5NzYiIHk9IjE4NC4xMDk0Ij52b2lkIGluaXQoKTwvdGV4dD48L2c+PCEtLWNsYXNzIFN0YXRlSGFuZGxlckltcGwtLT48ZyBjbGFzcz0iZW50aXR5IiBkYXRhLWVudGl0eT0iU3RhdGVIYW5kbGVySW1wbCIgZGF0YS1zb3VyY2UtbGluZT0iMzUiIGRhdGEtdWlkPSJlbnQwMDA1IiBpZD0iZW50aXR5X1N0YXRlSGFuZGxlckltcGwiPjxyZWN0IGZpbGw9IiNGMUYxRjEiIGhlaWdodD0iMTUyLjg5MDYiIHJ4PSIyLjUiIHJ5PSIyLjUiIHN0eWxlPSJzdHJva2U6IzE4MTgxODtzdHJva2Utd2lkdGg6MC41OyIgd2lkdGg9IjU4NiIgeD0iNyIgeT0iMjUwIi8+PGVsbGlwc2UgY3g9IjIzOS43NSIgY3k9IjI2NiIgZmlsbD0iI0FERDFCMiIgcng9IjExIiByeT0iMTEiIHN0eWxlPSJzdHJva2U6IzE4MTgxODtzdHJva2Utd2lkdGg6MTsiLz48cGF0aCBkPSJNMjM3LjM3NSwyNzAuMjUgTDIzNy4zNzUsMjcyIEwyNDIuMzEyNSwyNzIgTDI0Mi4zMTI1LDI3MC4yNSBMMjM3LjM3NSwyNzAuMjUgWiBNMjM4LjA2MjUsMjcwLjkzNzUgUTIzOC4wNjI1LDI3MC45Mzc1IDIzOC4wNjI1LDI2MS43NSBMMjM2LjMxMjUsMjYxLjc1IFEyMzYuMzEyNSwyNjEuNzUgMjM2LjMxMjUsMjcwLjkzNzUgTDIzOC4wNjI1LDI3MC45Mzc1IFogTTI0MS42MjUsMjcwLjkzNzUgTDI0My4zNzUsMjcwLjkzNzUgUTI0My4zNzUsMjcwLjkzNzUgMjQzLjM3NSwyNjguMTI1IEwyNDEuNjI1LDI2OC4xMjUgUTI0MS42MjUsMjY4LjEyNSAyNDEuNjI1LDI3MC45Mzc1IFogTTI0MS42MjUsMjYxLjc1IFEyNDEuNjI1LDI2MS43NSAyNDEuNjI1LDI2NC41NjI1IEwyNDMuMzc1LDI2NC41NjI1IFEyNDMuMzc1LDI2NC41NjI1IDI0My4zNzUsMjYxLjc1IEwyNDEuNjI1LDI2MS43NSBaIE0yMzcuMzc1LDI2Mi40Mzc1IEwyNDIuMzEyNSwyNjIuNDM3NSBMMjQyLjMxMjUsMjYwLjY4NzUgTDIzNy4zNzUsMjYwLjY4NzUgTDIzNy4zNzUsMjYyLjQzNzUgWiAiIGZpbGw9IiMwMDAwMDAiLz48dGV4dCBmaWxsPSIjMDAwMDAwIiBmb250LWZhbWlseT0ic2Fucy1zZXJpZiIgZm9udC1zaXplPSIxNCIgbGVuZ3RoQWRqdXN0PSJzcGFjaW5nIiB0ZXh0TGVuZ3RoPSIxMTIiIHg9IjI2MC4yNSIgeT0iMjcxLjc0MjIiPlN0YXRlSGFuZGxlckltcGw8L3RleHQ+PGxpbmUgc3R5bGU9InN0cm9rZTojMTgxODE4O3N0cm9rZS13aWR0aDowLjU7IiB4MT0iOCIgeDI9IjU5MiIgeTE9IjI4MiIgeTI9IjI4MiIvPjxsaW5lIHN0eWxlPSJzdHJva2U6IzE4MTgxODtzdHJva2Utd2lkdGg6MC41OyIgeDE9IjgiIHgyPSI1OTIiIHkxPSIyOTAiIHkyPSIyOTAiLz48ZWxsaXBzZSBjeD0iMTgiIGN5PSIzMDIuOTkyMiIgZmlsbD0iIzg0QkU4NCIgcng9IjMiIHJ5PSIzIiBzdHlsZT0ic3Ryb2tlOiMwMzgwNDg7c3Ryb2tlLXdpZHRoOjE7Ii8+PHRleHQgZmlsbD0iIzAwMDAwMCIgZm9udC1mYW1pbHk9InNhbnMtc2VyaWYiIGZvbnQtc2l6ZT0iMTQiIGxlbmd0aEFkanVzdD0ic3BhY2luZyIgdGV4dExlbmd0aD0iNTYwIiB4PSIyNyIgeT0iMzA3LjIzNDQiPlJlc3VsdCBhcnJhaWdubWVudChMb25nIGFjdGl2aXR5SWQsIEVudW0mbHQ7Q29uc3RhbnRzLkFjdGl2aXR5U3RhdGUmZ3Q7IGN1cnJlbnRTdGF0dXMpPC90ZXh0PjxlbGxpcHNlIGN4PSIxOCIgY3k9IjMxNy45NzY2IiBmaWxsPSIjODRCRTg0IiByeD0iMyIgcnk9IjMiIHN0eWxlPSJzdHJva2U6IzAzODA0ODtzdHJva2Utd2lkdGg6MTsiLz48dGV4dCBmaWxsPSIjMDAwMDAwIiBmb250LWZhbWlseT0ic2Fucy1zZXJpZiIgZm9udC1zaXplPSIxNCIgbGVuZ3RoQWRqdXN0PSJzcGFjaW5nIiB0ZXh0TGVuZ3RoPSI1NDYiIHg9IjI3IiB5PSIzMjIuMjE4OCI+UmVzdWx0IGNoZWNrUGFzcyhMb25nIGFjdGl2aXR5SWQsIEVudW0mbHQ7Q29uc3RhbnRzLkFjdGl2aXR5U3RhdGUmZ3Q7IGN1cnJlbnRTdGF0dXMpPC90ZXh0PjxlbGxpcHNlIGN4PSIxOCIgY3k9IjMzMi45NjA5IiBmaWxsPSIjODRCRTg0IiByeD0iMyIgcnk9IjMiIHN0eWxlPSJzdHJva2U6IzAzODA0ODtzdHJva2Utd2lkdGg6MTsiLz48dGV4dCBmaWxsPSIjMDAwMDAwIiBmb250LWZhbWlseT0ic2Fucy1zZXJpZiIgZm9udC1zaXplPSIxNCIgbGVuZ3RoQWRqdXN0PSJzcGFjaW5nIiB0ZXh0TGVuZ3RoPSI1NjAiIHg9IjI3IiB5PSIzMzcuMjAzMSI+UmVzdWx0IGNoZWNrUmVmdXNlKExvbmcgYWN0aXZpdHlJZCwgRW51bSZsdDtDb25zdGFudHMuQWN0aXZpdHlTdGF0ZSZndDsgY3VycmVudFN0YXR1cyk8L3RleHQ+PGVsbGlwc2UgY3g9IjE4IiBjeT0iMzQ3Ljk0NTMiIGZpbGw9IiM4NEJFODQiIHJ4PSIzIiByeT0iMyIgc3R5bGU9InN0cm9rZTojMDM4MDQ4O3N0cm9rZS13aWR0aDoxOyIvPjx0ZXh0IGZpbGw9IiMwMDAwMDAiIGZvbnQtZmFtaWx5PSJzYW5zLXNlcmlmIiBmb250LXNpemU9IjE0IiBsZW5ndGhBZGp1c3Q9InNwYWNpbmciIHRleHRMZW5ndGg9IjU2MCIgeD0iMjciIHk9IjM1Mi4xODc1Ij5SZXN1bHQgY2hlY2tSZXZva2UoTG9uZyBhY3Rpdml0eUlkLCBFbnVtJmx0O0NvbnN0YW50cy5BY3Rpdml0eVN0YXRlJmd0OyBjdXJyZW50U3RhdHVzKTwvdGV4dD48ZWxsaXBzZSBjeD0iMTgiIGN5PSIzNjIuOTI5NyIgZmlsbD0iIzg0QkU4NCIgcng9IjMiIHJ5PSIzIiBzdHlsZT0ic3Ryb2tlOiMwMzgwNDg7c3Ryb2tlLXdpZHRoOjE7Ii8+PHRleHQgZmlsbD0iIzAwMDAwMCIgZm9udC1mYW1pbHk9InNhbnMtc2VyaWYiIGZvbnQtc2l6ZT0iMTQiIGxlbmd0aEFkanVzdD0ic3BhY2luZyIgdGV4dExlbmd0aD0iNTE4IiB4PSIyNyIgeT0iMzY3LjE3MTkiPlJlc3VsdCBjbG9zZShMb25nIGFjdGl2aXR5SWQsIEVudW0mbHQ7Q29uc3RhbnRzLkFjdGl2aXR5U3RhdGUmZ3Q7IGN1cnJlbnRTdGF0dXMpPC90ZXh0PjxlbGxpcHNlIGN4PSIxOCIgY3k9IjM3Ny45MTQxIiBmaWxsPSIjODRCRTg0IiByeD0iMyIgcnk9IjMiIHN0eWxlPSJzdHJva2U6IzAzODA0ODtzdHJva2Utd2lkdGg6MTsiLz48dGV4dCBmaWxsPSIjMDAwMDAwIiBmb250LWZhbWlseT0ic2Fucy1zZXJpZiIgZm9udC1zaXplPSIxNCIgbGVuZ3RoQWRqdXN0PSJzcGFjaW5nIiB0ZXh0TGVuZ3RoPSI1MTEiIHg9IjI3IiB5PSIzODIuMTU2MyI+UmVzdWx0IG9wZW4oTG9uZyBhY3Rpdml0eUlkLCBFbnVtJmx0O0NvbnN0YW50cy5BY3Rpdml0eVN0YXRlJmd0OyBjdXJyZW50U3RhdHVzKTwvdGV4dD48ZWxsaXBzZSBjeD0iMTgiIGN5PSIzOTIuODk4NCIgZmlsbD0iIzg0QkU4NCIgcng9IjMiIHJ5PSIzIiBzdHlsZT0ic3Ryb2tlOiMwMzgwNDg7c3Ryb2tlLXdpZHRoOjE7Ii8+PHRleHQgZmlsbD0iIzAwMDAwMCIgZm9udC1mYW1pbHk9InNhbnMtc2VyaWYiIGZvbnQtc2l6ZT0iMTQiIGxlbmd0aEFkanVzdD0ic3BhY2luZyIgdGV4dExlbmd0aD0iNTE4IiB4PSIyNyIgeT0iMzk3LjE0MDYiPlJlc3VsdCBkb2luZyhMb25nIGFjdGl2aXR5SWQsIEVudW0mbHQ7Q29uc3RhbnRzLkFjdGl2aXR5U3RhdGUmZ3Q7IGN1cnJlbnRTdGF0dXMpPC90ZXh0PjwvZz48IS0tY2xhc3MgQXJyYWlnbm1lbnRTdGF0ZS0tPjxnIGNsYXNzPSJlbnRpdHkiIGRhdGEtZW50aXR5PSJBcnJhaWdubWVudFN0YXRlIiBkYXRhLXNvdXJjZS1saW5lPSI0NSIgZGF0YS11aWQ9ImVudDAwMDYiIGlkPSJlbnRpdHlfQXJyYWlnbm1lbnRTdGF0ZSI+PHJlY3QgZmlsbD0iI0YxRjFGMSIgaGVpZ2h0PSIxNTIuODkwNiIgcng9IjIuNSIgcnk9IjIuNSIgc3R5bGU9InN0cm9rZTojMTgxODE4O3N0cm9rZS13aWR0aDowLjU7IiB3aWR0aD0iNTc5IiB4PSIzNjk4LjUiIHk9IjI1MCIvPjxlbGxpcHNlIGN4PSIzOTI3Ljc1IiBjeT0iMjY2IiBmaWxsPSIjQUREMUIyIiByeD0iMTEiIHJ5PSIxMSIgc3R5bGU9InN0cm9rZTojMTgxODE4O3N0cm9rZS13aWR0aDoxOyIvPjxwYXRoIGQ9Ik0zOTI1LjM3NSwyNzAuMjUgTDM5MjUuMzc1LDI3MiBMMzkzMC4zMTI1LDI3MiBMMzkzMC4zMTI1LDI3MC4yNSBMMzkyNS4zNzUsMjcwLjI1IFogTTM5MjYuMDYyNSwyNzAuOTM3NSBRMzkyNi4wNjI1LDI3MC45Mzc1IDM5MjYuMDYyNSwyNjEuNzUgTDM5MjQuMzEyNSwyNjEuNzUgUTM5MjQuMzEyNSwyNjEuNzUgMzkyNC4zMTI1LDI3MC45Mzc1IEwzOTI2LjA2MjUsMjcwLjkzNzUgWiBNMzkyOS42MjUsMjcwLjkzNzUgTDM5MzEuMzc1LDI3MC45Mzc1IFEzOTMxLjM3NSwyNzAuOTM3NSAzOTMxLjM3NSwyNjguMTI1IEwzOTI5LjYyNSwyNjguMTI1IFEzOTI5LjYyNSwyNjguMTI1IDM5MjkuNjI1LDI3MC45Mzc1IFogTTM5MjkuNjI1LDI2MS43NSBRMzkyOS42MjUsMjYxLjc1IDM5MjkuNjI1LDI2NC41NjI1IEwzOTMxLjM3NSwyNjQuNTYyNSBRMzkzMS4zNzUsMjY0LjU2MjUgMzkzMS4zNzUsMjYxLjc1IEwzOTI5LjYyNSwyNjEuNzUgWiBNMzkyNS4zNzUsMjYyLjQzNzUgTDM5MzAuMzEyNSwyNjIuNDM3NSBMMzkzMC4zMTI1LDI2MC42ODc1IEwzOTI1LjM3NSwyNjAuNjg3NSBMMzkyNS4zNzUsMjYyLjQzNzUgWiAiIGZpbGw9IiMwMDAwMDAiLz48dGV4dCBmaWxsPSIjMDAwMDAwIiBmb250LWZhbWlseT0ic2Fucy1zZXJpZiIgZm9udC1zaXplPSIxNCIgbGVuZ3RoQWRqdXN0PSJzcGFjaW5nIiB0ZXh0TGVuZ3RoPSIxMTIiIHg9IjM5NDguMjUiIHk9IjI3MS43NDIyIj5BcnJhaWdubWVudFN0YXRlPC90ZXh0PjxsaW5lIHN0eWxlPSJzdHJva2U6IzE4MTgxODtzdHJva2Utd2lkdGg6MC41OyIgeDE9IjM2OTkuNSIgeDI9IjQyNzYuNSIgeTE9IjI4MiIgeTI9IjI4MiIvPjxsaW5lIHN0eWxlPSJzdHJva2U6IzE4MTgxODtzdHJva2Utd2lkdGg6MC41OyIgeDE9IjM2OTkuNSIgeDI9IjQyNzYuNSIgeTE9IjI5MCIgeTI9IjI5MCIvPjxlbGxpcHNlIGN4PSIzNzA5LjUiIGN5PSIzMDIuOTkyMiIgZmlsbD0iIzg0QkU4NCIgcng9IjMiIHJ5PSIzIiBzdHlsZT0ic3Ryb2tlOiMwMzgwNDg7c3Ryb2tlLXdpZHRoOjE7Ii8+PHRleHQgZmlsbD0iIzAwMDAwMCIgZm9udC1mYW1pbHk9InNhbnMtc2VyaWYiIGZvbnQtc2l6ZT0iMTQiIGxlbmd0aEFkanVzdD0ic3BhY2luZyIgdGV4dExlbmd0aD0iNTUzIiB4PSIzNzE4LjUiIHk9IjMwNy4yMzQ0Ij5SZXN1bHQgYXJyYWlnbm1lbnQoTG9uZyBhY3Rpdml0eUlkLCBFbnVtJmx0O0NvbnN0YW50cy5BY3Rpdml0eVN0YXRlJmd0OyBjdXJyZW50U3RhdGUpPC90ZXh0PjxlbGxpcHNlIGN4PSIzNzA5LjUiIGN5PSIzMTcuOTc2NiIgZmlsbD0iIzg0QkU4NCIgcng9IjMiIHJ5PSIzIiBzdHlsZT0ic3Ryb2tlOiMwMzgwNDg7c3Ryb2tlLXdpZHRoOjE7Ii8+PHRleHQgZmlsbD0iIzAwMDAwMCIgZm9udC1mYW1pbHk9InNhbnMtc2VyaWYiIGZvbnQtc2l6ZT0iMTQiIGxlbmd0aEFkanVzdD0ic3BhY2luZyIgdGV4dExlbmd0aD0iNTM5IiB4PSIzNzE4LjUiIHk9IjMyMi4yMTg4Ij5SZXN1bHQgY2hlY2tQYXNzKExvbmcgYWN0aXZpdHlJZCwgRW51bSZsdDtDb25zdGFudHMuQWN0aXZpdHlTdGF0ZSZndDsgY3VycmVudFN0YXRlKTwvdGV4dD48ZWxsaXBzZSBjeD0iMzcwOS41IiBjeT0iMzMyLjk2MDkiIGZpbGw9IiM4NEJFODQiIHJ4PSIzIiByeT0iMyIgc3R5bGU9InN0cm9rZTojMDM4MDQ4O3N0cm9rZS13aWR0aDoxOyIvPjx0ZXh0IGZpbGw9IiMwMDAwMDAiIGZvbnQtZmFtaWx5PSJzYW5zLXNlcmlmIiBmb250LXNpemU9IjE0IiBsZW5ndGhBZGp1c3Q9InNwYWNpbmciIHRleHRMZW5ndGg9IjU1MyIgeD0iMzcxOC41IiB5PSIzMzcuMjAzMSI+UmVzdWx0IGNoZWNrUmVmdXNlKExvbmcgYWN0aXZpdHlJZCwgRW51bSZsdDtDb25zdGFudHMuQWN0aXZpdHlTdGF0ZSZndDsgY3VycmVudFN0YXRlKTwvdGV4dD48ZWxsaXBzZSBjeD0iMzcwOS41IiBjeT0iMzQ3Ljk0NTMiIGZpbGw9IiM4NEJFODQiIHJ4PSIzIiByeT0iMyIgc3R5bGU9InN0cm9rZTojMDM4MDQ4O3N0cm9rZS13aWR0aDoxOyIvPjx0ZXh0IGZpbGw9IiMwMDAwMDAiIGZvbnQtZmFtaWx5PSJzYW5zLXNlcmlmIiBmb250LXNpemU9IjE0IiBsZW5ndGhBZGp1c3Q9InNwYWNpbmciIHRleHRMZW5ndGg9IjU1MyIgeD0iMzcxOC41IiB5PSIzNTIuMTg3NSI+UmVzdWx0IGNoZWNrUmV2b2tlKExvbmcgYWN0aXZpdHlJZCwgRW51bSZsdDtDb25zdGFudHMuQWN0aXZpdHlTdGF0ZSZndDsgY3VycmVudFN0YXRlKTwvdGV4dD48ZWxsaXBzZSBjeD0iMzcwOS41IiBjeT0iMzYyLjkyOTciIGZpbGw9IiM4NEJFODQiIHJ4PSIzIiByeT0iMyIgc3R5bGU9InN0cm9rZTojMDM4MDQ4O3N0cm9rZS13aWR0aDoxOyIvPjx0ZXh0IGZpbGw9IiMwMDAwMDAiIGZvbnQtZmFtaWx5PSJzYW5zLXNlcmlmIiBmb250LXNpemU9IjE0IiBsZW5ndGhBZGp1c3Q9InNwYWNpbmciIHRleHRMZW5ndGg9IjUxMSIgeD0iMzcxOC41IiB5PSIzNjcuMTcxOSI+UmVzdWx0IGNsb3NlKExvbmcgYWN0aXZpdHlJZCwgRW51bSZsdDtDb25zdGFudHMuQWN0aXZpdHlTdGF0ZSZndDsgY3VycmVudFN0YXRlKTwvdGV4dD48ZWxsaXBzZSBjeD0iMzcwOS41IiBjeT0iMzc3LjkxNDEiIGZpbGw9IiM4NEJFODQiIHJ4PSIzIiByeT0iMyIgc3R5bGU9InN0cm9rZTojMDM4MDQ4O3N0cm9rZS13aWR0aDoxOyIvPjx0ZXh0IGZpbGw9IiMwMDAwMDAiIGZvbnQtZmFtaWx5PSJzYW5zLXNlcmlmIiBmb250LXNpemU9IjE0IiBsZW5ndGhBZGp1c3Q9InNwYWNpbmciIHRleHRMZW5ndGg9IjUwNCIgeD0iMzcxOC41IiB5PSIzODIuMTU2MyI+UmVzdWx0IG9wZW4oTG9uZyBhY3Rpdml0eUlkLCBFbnVtJmx0O0NvbnN0YW50cy5BY3Rpdml0eVN0YXRlJmd0OyBjdXJyZW50U3RhdGUpPC90ZXh0PjxlbGxpcHNlIGN4PSIzNzA5LjUiIGN5PSIzOTIuODk4NCIgZmlsbD0iIzg0QkU4NCIgcng9IjMiIHJ5PSIzIiBzdHlsZT0ic3Ryb2tlOiMwMzgwNDg7c3Ryb2tlLXdpZHRoOjE7Ii8+PHRleHQgZmlsbD0iIzAwMDAwMCIgZm9udC1mYW1pbHk9InNhbnMtc2VyaWYiIGZvbnQtc2l6ZT0iMTQiIGxlbmd0aEFkanVzdD0ic3BhY2luZyIgdGV4dExlbmd0aD0iNTExIiB4PSIzNzE4LjUiIHk9IjM5Ny4xNDA2Ij5SZXN1bHQgZG9pbmcoTG9uZyBhY3Rpdml0eUlkLCBFbnVtJmx0O0NvbnN0YW50cy5BY3Rpdml0eVN0YXRlJmd0OyBjdXJyZW50U3RhdGUpPC90ZXh0PjwvZz48IS0tY2xhc3MgUmVmdXNlU3RhdGUtLT48ZyBjbGFzcz0iZW50aXR5IiBkYXRhLWVudGl0eT0iUmVmdXNlU3RhdGUiIGRhdGEtc291cmNlLWxpbmU9IjU1IiBkYXRhLXVpZD0iZW50MDAwNyIgaWQ9ImVudGl0eV9SZWZ1c2VTdGF0ZSI+PHJlY3QgZmlsbD0iI0YxRjFGMSIgaGVpZ2h0PSIxNTIuODkwNiIgcng9IjIuNSIgcnk9IjIuNSIgc3R5bGU9InN0cm9rZTojMTgxODE4O3N0cm9rZS13aWR0aDowLjU7IiB3aWR0aD0iNTc5IiB4PSI0MzEyLjUiIHk9IjI1MCIvPjxlbGxpcHNlIGN4PSI0NTU5LjI1IiBjeT0iMjY2IiBmaWxsPSIjQUREMUIyIiByeD0iMTEiIHJ5PSIxMSIgc3R5bGU9InN0cm9rZTojMTgxODE4O3N0cm9rZS13aWR0aDoxOyIvPjxwYXRoIGQ9Ik00NTU2Ljg3NSwyNzAuMjUgTDQ1NTYuODc1LDI3MiBMNDU2MS44MTI1LDI3MiBMNDU2MS44MTI1LDI3MC4yNSBMNDU1Ni44NzUsMjcwLjI1IFogTTQ1NTcuNTYyNSwyNzAuOTM3NSBRNDU1Ny41NjI1LDI3MC45Mzc1IDQ1NTcuNTYyNSwyNjEuNzUgTDQ1NTUuODEyNSwyNjEuNzUgUTQ1NTUuODEyNSwyNjEuNzUgNDU1NS44MTI1LDI3MC45Mzc1IEw0NTU3LjU2MjUsMjcwLjkzNzUgWiBNNDU2MS4xMjUsMjcwLjkzNzUgTDQ1NjIuODc1LDI3MC45Mzc1IFE0NTYyLjg3NSwyNzAuOTM3NSA0NTYyLjg3NSwyNjguMTI1IEw0NTYxLjEyNSwyNjguMTI1IFE0NTYxLjEyNSwyNjguMTI1IDQ1NjEuMTI1LDI3MC45Mzc1IFogTTQ1NjEuMTI1LDI2MS43NSBRNDU2MS4xMjUsMjYxLjc1IDQ1NjEuMTI1LDI2NC41NjI1IEw0NTYyLjg3NSwyNjQuNTYyNSBRNDU2Mi44NzUsMjY0LjU2MjUgNDU2Mi44NzUsMjYxLjc1IEw0NTYxLjEyNSwyNjEuNzUgWiBNNDU1Ni44NzUsMjYyLjQzNzUgTDQ1NjEuODEyNSwyNjIuNDM3NSBMNDU2MS44MTI1LDI2MC42ODc1IEw0NTU2Ljg3NSwyNjAuNjg3NSBMNDU1Ni44NzUsMjYyLjQzNzUgWiAiIGZpbGw9IiMwMDAwMDAiLz48dGV4dCBmaWxsPSIjMDAwMDAwIiBmb250LWZhbWlseT0ic2Fucy1zZXJpZiIgZm9udC1zaXplPSIxNCIgbGVuZ3RoQWRqdXN0PSJzcGFjaW5nIiB0ZXh0TGVuZ3RoPSI3NyIgeD0iNDU3OS43NSIgeT0iMjcxLjc0MjIiPlJlZnVzZVN0YXRlPC90ZXh0PjxsaW5lIHN0eWxlPSJzdHJva2U6IzE4MTgxODtzdHJva2Utd2lkdGg6MC41OyIgeDE9IjQzMTMuNSIgeDI9IjQ4OTAuNSIgeTE9IjI4MiIgeTI9IjI4MiIvPjxsaW5lIHN0eWxlPSJzdHJva2U6IzE4MTgxODtzdHJva2Utd2lkdGg6MC41OyIgeDE9IjQzMTMuNSIgeDI9IjQ4OTAuNSIgeTE9IjI5MCIgeTI9IjI5MCIvPjxlbGxpcHNlIGN4PSI0MzIzLjUiIGN5PSIzMDIuOTkyMiIgZmlsbD0iIzg0QkU4NCIgcng9IjMiIHJ5PSIzIiBzdHlsZT0ic3Ryb2tlOiMwMzgwNDg7c3Ryb2tlLXdpZHRoOjE7Ii8+PHRleHQgZmlsbD0iIzAwMDAwMCIgZm9udC1mYW1pbHk9InNhbnMtc2VyaWYiIGZvbnQtc2l6ZT0iMTQiIGxlbmd0aEFkanVzdD0ic3BhY2luZyIgdGV4dExlbmd0aD0iNTUzIiB4PSI0MzMyLjUiIHk9IjMwNy4yMzQ0Ij5SZXN1bHQgYXJyYWlnbm1lbnQoTG9uZyBhY3Rpdml0eUlkLCBFbnVtJmx0O0NvbnN0YW50cy5BY3Rpdml0eVN0YXRlJmd0OyBjdXJyZW50U3RhdGUpPC90ZXh0PjxlbGxpcHNlIGN4PSI0MzIzLjUiIGN5PSIzMTcuOTc2NiIgZmlsbD0iIzg0QkU4NCIgcng9IjMiIHJ5PSIzIiBzdHlsZT0ic3Ryb2tlOiMwMzgwNDg7c3Ryb2tlLXdpZHRoOjE7Ii8+PHRleHQgZmlsbD0iIzAwMDAwMCIgZm9udC1mYW1pbHk9InNhbnMtc2VyaWYiIGZvbnQtc2l6ZT0iMTQiIGxlbmd0aEFkanVzdD0ic3BhY2luZyIgdGV4dExlbmd0aD0iNTM5IiB4PSI0MzMyLjUiIHk9IjMyMi4yMTg4Ij5SZXN1bHQgY2hlY2tQYXNzKExvbmcgYWN0aXZpdHlJZCwgRW51bSZsdDtDb25zdGFudHMuQWN0aXZpdHlTdGF0ZSZndDsgY3VycmVudFN0YXRlKTwvdGV4dD48ZWxsaXBzZSBjeD0iNDMyMy41IiBjeT0iMzMyLjk2MDkiIGZpbGw9IiM4NEJFODQiIHJ4PSIzIiByeT0iMyIgc3R5bGU9InN0cm9rZTojMDM4MDQ4O3N0cm9rZS13aWR0aDoxOyIvPjx0ZXh0IGZpbGw9IiMwMDAwMDAiIGZvbnQtZmFtaWx5PSJzYW5zLXNlcmlmIiBmb250LXNpemU9IjE0IiBsZW5ndGhBZGp1c3Q9InNwYWNpbmciIHRleHRMZW5ndGg9IjU1MyIgeD0iNDMzMi41IiB5PSIzMzcuMjAzMSI+UmVzdWx0IGNoZWNrUmVmdXNlKExvbmcgYWN0aXZpdHlJZCwgRW51bSZsdDtDb25zdGFudHMuQWN0aXZpdHlTdGF0ZSZndDsgY3VycmVudFN0YXRlKTwvdGV4dD48ZWxsaXBzZSBjeD0iNDMyMy41IiBjeT0iMzQ3Ljk0NTMiIGZpbGw9IiM4NEJFODQiIHJ4PSIzIiByeT0iMyIgc3R5bGU9InN0cm9rZTojMDM4MDQ4O3N0cm9rZS13aWR0aDoxOyIvPjx0ZXh0IGZpbGw9IiMwMDAwMDAiIGZvbnQtZmFtaWx5PSJzYW5zLXNlcmlmIiBmb250LXNpemU9IjE0IiBsZW5ndGhBZGp1c3Q9InNwYWNpbmciIHRleHRMZW5ndGg9IjU1MyIgeD0iNDMzMi41IiB5PSIzNTIuMTg3NSI+UmVzdWx0IGNoZWNrUmV2b2tlKExvbmcgYWN0aXZpdHlJZCwgRW51bSZsdDtDb25zdGFudHMuQWN0aXZpdHlTdGF0ZSZndDsgY3VycmVudFN0YXRlKTwvdGV4dD48ZWxsaXBzZSBjeD0iNDMyMy41IiBjeT0iMzYyLjkyOTciIGZpbGw9IiM4NEJFODQiIHJ4PSIzIiByeT0iMyIgc3R5bGU9InN0cm9rZTojMDM4MDQ4O3N0cm9rZS13aWR0aDoxOyIvPjx0ZXh0IGZpbGw9IiMwMDAwMDAiIGZvbnQtZmFtaWx5PSJzYW5zLXNlcmlmIiBmb250LXNpemU9IjE0IiBsZW5ndGhBZGp1c3Q9InNwYWNpbmciIHRleHRMZW5ndGg9IjUxMSIgeD0iNDMzMi41IiB5PSIzNjcuMTcxOSI+UmVzdWx0IGNsb3NlKExvbmcgYWN0aXZpdHlJZCwgRW51bSZsdDtDb25zdGFudHMuQWN0aXZpdHlTdGF0ZSZndDsgY3VycmVudFN0YXRlKTwvdGV4dD48ZWxsaXBzZSBjeD0iNDMyMy41IiBjeT0iMzc3LjkxNDEiIGZpbGw9IiM4NEJFODQiIHJ4PSIzIiByeT0iMyIgc3R5bGU9InN0cm9rZTojMDM4MDQ4O3N0cm9rZS13aWR0aDoxOyIvPjx0ZXh0IGZpbGw9IiMwMDAwMDAiIGZvbnQtZmFtaWx5PSJzYW5zLXNlcmlmIiBmb250LXNpemU9IjE0IiBsZW5ndGhBZGp1c3Q9InNwYWNpbmciIHRleHRMZW5ndGg9IjUwNCIgeD0iNDMzMi41IiB5PSIzODIuMTU2MyI+UmVzdWx0IG9wZW4oTG9uZyBhY3Rpdml0eUlkLCBFbnVtJmx0O0NvbnN0YW50cy5BY3Rpdml0eVN0YXRlJmd0OyBjdXJyZW50U3RhdGUpPC90ZXh0PjxlbGxpcHNlIGN4PSI0MzIzLjUiIGN5PSIzOTIuODk4NCIgZmlsbD0iIzg0QkU4NCIgcng9IjMiIHJ5PSIzIiBzdHlsZT0ic3Ryb2tlOiMwMzgwNDg7c3Ryb2tlLXdpZHRoOjE7Ii8+PHRleHQgZmlsbD0iIzAwMDAwMCIgZm9udC1mYW1pbHk9InNhbnMtc2VyaWYiIGZvbnQtc2l6ZT0iMTQiIGxlbmd0aEFkanVzdD0ic3BhY2luZyIgdGV4dExlbmd0aD0iNTExIiB4PSI0MzMyLjUiIHk9IjM5Ny4xNDA2Ij5SZXN1bHQgZG9pbmcoTG9uZyBhY3Rpdml0eUlkLCBFbnVtJmx0O0NvbnN0YW50cy5BY3Rpdml0eVN0YXRlJmd0OyBjdXJyZW50U3RhdGUpPC90ZXh0PjwvZz48IS0tY2xhc3MgRWRpdGluZ1N0YXRlLS0+PGcgY2xhc3M9ImVudGl0eSIgZGF0YS1lbnRpdHk9IkVkaXRpbmdTdGF0ZSIgZGF0YS1zb3VyY2UtbGluZT0iNjUiIGRhdGEtdWlkPSJlbnQwMDA4IiBpZD0iZW50aXR5X0VkaXRpbmdTdGF0ZSI+PHJlY3QgZmlsbD0iI0YxRjFGMSIgaGVpZ2h0PSIxNTIuODkwNiIgcng9IjIuNSIgcnk9IjIuNSIgc3R5bGU9InN0cm9rZTojMTgxODE4O3N0cm9rZS13aWR0aDowLjU7IiB3aWR0aD0iNTc5IiB4PSI2MjguNSIgeT0iMjUwIi8+PGVsbGlwc2UgY3g9Ijg3MS43NSIgY3k9IjI2NiIgZmlsbD0iI0FERDFCMiIgcng9IjExIiByeT0iMTEiIHN0eWxlPSJzdHJva2U6IzE4MTgxODtzdHJva2Utd2lkdGg6MTsiLz48cGF0aCBkPSJNODY5LjM3NSwyNzAuMjUgTDg2OS4zNzUsMjcyIEw4NzQuMzEyNSwyNzIgTDg3NC4zMTI1LDI3MC4yNSBMODY5LjM3NSwyNzAuMjUgWiBNODcwLjA2MjUsMjcwLjkzNzUgUTg3MC4wNjI1LDI3MC45Mzc1IDg3MC4wNjI1LDI2MS43NSBMODY4LjMxMjUsMjYxLjc1IFE4NjguMzEyNSwyNjEuNzUgODY4LjMxMjUsMjcwLjkzNzUgTDg3MC4wNjI1LDI3MC45Mzc1IFogTTg3My42MjUsMjcwLjkzNzUgTDg3NS4zNzUsMjcwLjkzNzUgUTg3NS4zNzUsMjcwLjkzNzUgODc1LjM3NSwyNjguMTI1IEw4NzMuNjI1LDI2OC4xMjUgUTg3My42MjUsMjY4LjEyNSA4NzMuNjI1LDI3MC45Mzc1IFogTTg3My42MjUsMjYxLjc1IFE4NzMuNjI1LDI2MS43NSA4NzMuNjI1LDI2NC41NjI1IEw4NzUuMzc1LDI2NC41NjI1IFE4NzUuMzc1LDI2NC41NjI1IDg3NS4zNzUsMjYxLjc1IEw4NzMuNjI1LDI2MS43NSBaIE04NjkuMzc1LDI2Mi40Mzc1IEw4NzQuMzEyNSwyNjIuNDM3NSBMODc0LjMxMjUsMjYwLjY4NzUgTDg2OS4zNzUsMjYwLjY4NzUgTDg2OS4zNzUsMjYyLjQzNzUgWiAiIGZpbGw9IiMwMDAwMDAiLz48dGV4dCBmaWxsPSIjMDAwMDAwIiBmb250LWZhbWlseT0ic2Fucy1zZXJpZiIgZm9udC1zaXplPSIxNCIgbGVuZ3RoQWRqdXN0PSJzcGFjaW5nIiB0ZXh0TGVuZ3RoPSI4NCIgeD0iODkyLjI1IiB5PSIyNzEuNzQyMiI+RWRpdGluZ1N0YXRlPC90ZXh0PjxsaW5lIHN0eWxlPSJzdHJva2U6IzE4MTgxODtzdHJva2Utd2lkdGg6MC41OyIgeDE9IjYyOS41IiB4Mj0iMTIwNi41IiB5MT0iMjgyIiB5Mj0iMjgyIi8+PGxpbmUgc3R5bGU9InN0cm9rZTojMTgxODE4O3N0cm9rZS13aWR0aDowLjU7IiB4MT0iNjI5LjUiIHgyPSIxMjA2LjUiIHkxPSIyOTAiIHkyPSIyOTAiLz48ZWxsaXBzZSBjeD0iNjM5LjUiIGN5PSIzMDIuOTkyMiIgZmlsbD0iIzg0QkU4NCIgcng9IjMiIHJ5PSIzIiBzdHlsZT0ic3Ryb2tlOiMwMzgwNDg7c3Ryb2tlLXdpZHRoOjE7Ii8+PHRleHQgZmlsbD0iIzAwMDAwMCIgZm9udC1mYW1pbHk9InNhbnMtc2VyaWYiIGZvbnQtc2l6ZT0iMTQiIGxlbmd0aEFkanVzdD0ic3BhY2luZyIgdGV4dExlbmd0aD0iNTUzIiB4PSI2NDguNSIgeT0iMzA3LjIzNDQiPlJlc3VsdCBhcnJhaWdubWVudChMb25nIGFjdGl2aXR5SWQsIEVudW0mbHQ7Q29uc3RhbnRzLkFjdGl2aXR5U3RhdGUmZ3Q7IGN1cnJlbnRTdGF0ZSk8L3RleHQ+PGVsbGlwc2UgY3g9IjYzOS41IiBjeT0iMzE3Ljk3NjYiIGZpbGw9IiM4NEJFODQiIHJ4PSIzIiByeT0iMyIgc3R5bGU9InN0cm9rZTojMDM4MDQ4O3N0cm9rZS13aWR0aDoxOyIvPjx0ZXh0IGZpbGw9IiMwMDAwMDAiIGZvbnQtZmFtaWx5PSJzYW5zLXNlcmlmIiBmb250LXNpemU9IjE0IiBsZW5ndGhBZGp1c3Q9InNwYWNpbmciIHRleHRMZW5ndGg9IjUzOSIgeD0iNjQ4LjUiIHk9IjMyMi4yMTg4Ij5SZXN1bHQgY2hlY2tQYXNzKExvbmcgYWN0aXZpdHlJZCwgRW51bSZsdDtDb25zdGFudHMuQWN0aXZpdHlTdGF0ZSZndDsgY3VycmVudFN0YXRlKTwvdGV4dD48ZWxsaXBzZSBjeD0iNjM5LjUiIGN5PSIzMzIuOTYwOSIgZmlsbD0iIzg0QkU4NCIgcng9IjMiIHJ5PSIzIiBzdHlsZT0ic3Ryb2tlOiMwMzgwNDg7c3Ryb2tlLXdpZHRoOjE7Ii8+PHRleHQgZmlsbD0iIzAwMDAwMCIgZm9udC1mYW1pbHk9InNhbnMtc2VyaWYiIGZvbnQtc2l6ZT0iMTQiIGxlbmd0aEFkanVzdD0ic3BhY2luZyIgdGV4dExlbmd0aD0iNTUzIiB4PSI2NDguNSIgeT0iMzM3LjIwMzEiPlJlc3VsdCBjaGVja1JlZnVzZShMb25nIGFjdGl2aXR5SWQsIEVudW0mbHQ7Q29uc3RhbnRzLkFjdGl2aXR5U3RhdGUmZ3Q7IGN1cnJlbnRTdGF0ZSk8L3RleHQ+PGVsbGlwc2UgY3g9IjYzOS41IiBjeT0iMzQ3Ljk0NTMiIGZpbGw9IiM4NEJFODQiIHJ4PSIzIiByeT0iMyIgc3R5bGU9InN0cm9rZTojMDM4MDQ4O3N0cm9rZS13aWR0aDoxOyIvPjx0ZXh0IGZpbGw9IiMwMDAwMDAiIGZvbnQtZmFtaWx5PSJzYW5zLXNlcmlmIiBmb250LXNpemU9IjE0IiBsZW5ndGhBZGp1c3Q9InNwYWNpbmciIHRleHRMZW5ndGg9IjU1MyIgeD0iNjQ4LjUiIHk9IjM1Mi4xODc1Ij5SZXN1bHQgY2hlY2tSZXZva2UoTG9uZyBhY3Rpdml0eUlkLCBFbnVtJmx0O0NvbnN0YW50cy5BY3Rpdml0eVN0YXRlJmd0OyBjdXJyZW50U3RhdGUpPC90ZXh0PjxlbGxpcHNlIGN4PSI2MzkuNSIgY3k9IjM2Mi45Mjk3IiBmaWxsPSIjODRCRTg0IiByeD0iMyIgcnk9IjMiIHN0eWxlPSJzdHJva2U6IzAzODA0ODtzdHJva2Utd2lkdGg6MTsiLz48dGV4dCBmaWxsPSIjMDAwMDAwIiBmb250LWZhbWlseT0ic2Fucy1zZXJpZiIgZm9udC1zaXplPSIxNCIgbGVuZ3RoQWRqdXN0PSJzcGFjaW5nIiB0ZXh0TGVuZ3RoPSI1MTEiIHg9IjY0OC41IiB5PSIzNjcuMTcxOSI+UmVzdWx0IGNsb3NlKExvbmcgYWN0aXZpdHlJZCwgRW51bSZsdDtDb25zdGFudHMuQWN0aXZpdHlTdGF0ZSZndDsgY3VycmVudFN0YXRlKTwvdGV4dD48ZWxsaXBzZSBjeD0iNjM5LjUiIGN5PSIzNzcuOTE0MSIgZmlsbD0iIzg0QkU4NCIgcng9IjMiIHJ5PSIzIiBzdHlsZT0ic3Ryb2tlOiMwMzgwNDg7c3Ryb2tlLXdpZHRoOjE7Ii8+PHRleHQgZmlsbD0iIzAwMDAwMCIgZm9udC1mYW1pbHk9InNhbnMtc2VyaWYiIGZvbnQtc2l6ZT0iMTQiIGxlbmd0aEFkanVzdD0ic3BhY2luZyIgdGV4dExlbmd0aD0iNTA0IiB4PSI2NDguNSIgeT0iMzgyLjE1NjMiPlJlc3VsdCBvcGVuKExvbmcgYWN0aXZpdHlJZCwgRW51bSZsdDtDb25zdGFudHMuQWN0aXZpdHlTdGF0ZSZndDsgY3VycmVudFN0YXRlKTwvdGV4dD48ZWxsaXBzZSBjeD0iNjM5LjUiIGN5PSIzOTIuODk4NCIgZmlsbD0iIzg0QkU4NCIgcng9IjMiIHJ5PSIzIiBzdHlsZT0ic3Ryb2tlOiMwMzgwNDg7c3Ryb2tlLXdpZHRoOjE7Ii8+PHRleHQgZmlsbD0iIzAwMDAwMCIgZm9udC1mYW1pbHk9InNhbnMtc2VyaWYiIGZvbnQtc2l6ZT0iMTQiIGxlbmd0aEFkanVzdD0ic3BhY2luZyIgdGV4dExlbmd0aD0iNTExIiB4PSI2NDguNSIgeT0iMzk3LjE0MDYiPlJlc3VsdCBkb2luZyhMb25nIGFjdGl2aXR5SWQsIEVudW0mbHQ7Q29uc3RhbnRzLkFjdGl2aXR5U3RhdGUmZ3Q7IGN1cnJlbnRTdGF0ZSk8L3RleHQ+PC9nPjwhLS1jbGFzcyBQYXNzU3RhdGUtLT48ZyBjbGFzcz0iZW50aXR5IiBkYXRhLWVudGl0eT0iUGFzc1N0YXRlIiBkYXRhLXNvdXJjZS1saW5lPSI3NSIgZGF0YS11aWQ9ImVudDAwMDkiIGlkPSJlbnRpdHlfUGFzc1N0YXRlIj48cmVjdCBmaWxsPSIjRjFGMUYxIiBoZWlnaHQ9IjE1Mi44OTA2IiByeD0iMi41IiByeT0iMi41IiBzdHlsZT0ic3Ryb2tlOiMxODE4MTg7c3Ryb2tlLXdpZHRoOjAuNTsiIHdpZHRoPSI1NzkiIHg9IjEyNDIuNSIgeT0iMjUwIi8+PGVsbGlwc2UgY3g9IjE0OTYuMjUiIGN5PSIyNjYiIGZpbGw9IiNBREQxQjIiIHJ4PSIxMSIgcnk9IjExIiBzdHlsZT0ic3Ryb2tlOiMxODE4MTg7c3Ryb2tlLXdpZHRoOjE7Ii8+PHBhdGggZD0iTTE0OTMuODc1LDI3MC4yNSBMMTQ5My44NzUsMjcyIEwxNDk4LjgxMjUsMjcyIEwxNDk4LjgxMjUsMjcwLjI1IEwxNDkzLjg3NSwyNzAuMjUgWiBNMTQ5NC41NjI1LDI3MC45Mzc1IFExNDk0LjU2MjUsMjcwLjkzNzUgMTQ5NC41NjI1LDI2MS43NSBMMTQ5Mi44MTI1LDI2MS43NSBRMTQ5Mi44MTI1LDI2MS43NSAxNDkyLjgxMjUsMjcwLjkzNzUgTDE0OTQuNTYyNSwyNzAuOTM3NSBaIE0xNDk4LjEyNSwyNzAuOTM3NSBMMTQ5OS44NzUsMjcwLjkzNzUgUTE0OTkuODc1LDI3MC45Mzc1IDE0OTkuODc1LDI2OC4xMjUgTDE0OTguMTI1LDI2OC4xMjUgUTE0OTguMTI1LDI2OC4xMjUgMTQ5OC4xMjUsMjcwLjkzNzUgWiBNMTQ5OC4xMjUsMjYxLjc1IFExNDk4LjEyNSwyNjEuNzUgMTQ5OC4xMjUsMjY0LjU2MjUgTDE0OTkuODc1LDI2NC41NjI1IFExNDk5Ljg3NSwyNjQuNTYyNSAxNDk5Ljg3NSwyNjEuNzUgTDE0OTguMTI1LDI2MS43NSBaIE0xNDkzLjg3NSwyNjIuNDM3NSBMMTQ5OC44MTI1LDI2Mi40Mzc1IEwxNDk4LjgxMjUsMjYwLjY4NzUgTDE0OTMuODc1LDI2MC42ODc1IEwxNDkzLjg3NSwyNjIuNDM3NSBaICIgZmlsbD0iIzAwMDAwMCIvPjx0ZXh0IGZpbGw9IiMwMDAwMDAiIGZvbnQtZmFtaWx5PSJzYW5zLXNlcmlmIiBmb250LXNpemU9IjE0IiBsZW5ndGhBZGp1c3Q9InNwYWNpbmciIHRleHRMZW5ndGg9IjYzIiB4PSIxNTE2Ljc1IiB5PSIyNzEuNzQyMiI+UGFzc1N0YXRlPC90ZXh0PjxsaW5lIHN0eWxlPSJzdHJva2U6IzE4MTgxODtzdHJva2Utd2lkdGg6MC41OyIgeDE9IjEyNDMuNSIgeDI9IjE4MjAuNSIgeTE9IjI4MiIgeTI9IjI4MiIvPjxsaW5lIHN0eWxlPSJzdHJva2U6IzE4MTgxODtzdHJva2Utd2lkdGg6MC41OyIgeDE9IjEyNDMuNSIgeDI9IjE4MjAuNSIgeTE9IjI5MCIgeTI9IjI5MCIvPjxlbGxpcHNlIGN4PSIxMjUzLjUiIGN5PSIzMDIuOTkyMiIgZmlsbD0iIzg0QkU4NCIgcng9IjMiIHJ5PSIzIiBzdHlsZT0ic3Ryb2tlOiMwMzgwNDg7c3Ryb2tlLXdpZHRoOjE7Ii8+PHRleHQgZmlsbD0iIzAwMDAwMCIgZm9udC1mYW1pbHk9InNhbnMtc2VyaWYiIGZvbnQtc2l6ZT0iMTQiIGxlbmd0aEFkanVzdD0ic3BhY2luZyIgdGV4dExlbmd0aD0iNTUzIiB4PSIxMjYyLjUiIHk9IjMwNy4yMzQ0Ij5SZXN1bHQgYXJyYWlnbm1lbnQoTG9uZyBhY3Rpdml0eUlkLCBFbnVtJmx0O0NvbnN0YW50cy5BY3Rpdml0eVN0YXRlJmd0OyBjdXJyZW50U3RhdGUpPC90ZXh0PjxlbGxpcHNlIGN4PSIxMjUzLjUiIGN5PSIzMTcuOTc2NiIgZmlsbD0iIzg0QkU4NCIgcng9IjMiIHJ5PSIzIiBzdHlsZT0ic3Ryb2tlOiMwMzgwNDg7c3Ryb2tlLXdpZHRoOjE7Ii8+PHRleHQgZmlsbD0iIzAwMDAwMCIgZm9udC1mYW1pbHk9InNhbnMtc2VyaWYiIGZvbnQtc2l6ZT0iMTQiIGxlbmd0aEFkanVzdD0ic3BhY2luZyIgdGV4dExlbmd0aD0iNTM5IiB4PSIxMjYyLjUiIHk9IjMyMi4yMTg4Ij5SZXN1bHQgY2hlY2tQYXNzKExvbmcgYWN0aXZpdHlJZCwgRW51bSZsdDtDb25zdGFudHMuQWN0aXZpdHlTdGF0ZSZndDsgY3VycmVudFN0YXRlKTwvdGV4dD48ZWxsaXBzZSBjeD0iMTI1My41IiBjeT0iMzMyLjk2MDkiIGZpbGw9IiM4NEJFODQiIHJ4PSIzIiByeT0iMyIgc3R5bGU9InN0cm9rZTojMDM4MDQ4O3N0cm9rZS13aWR0aDoxOyIvPjx0ZXh0IGZpbGw9IiMwMDAwMDAiIGZvbnQtZmFtaWx5PSJzYW5zLXNlcmlmIiBmb250LXNpemU9IjE0IiBsZW5ndGhBZGp1c3Q9InNwYWNpbmciIHRleHRMZW5ndGg9IjU1MyIgeD0iMTI2Mi41IiB5PSIzMzcuMjAzMSI+UmVzdWx0IGNoZWNrUmVmdXNlKExvbmcgYWN0aXZpdHlJZCwgRW51bSZsdDtDb25zdGFudHMuQWN0aXZpdHlTdGF0ZSZndDsgY3VycmVudFN0YXRlKTwvdGV4dD48ZWxsaXBzZSBjeD0iMTI1My41IiBjeT0iMzQ3Ljk0NTMiIGZpbGw9IiM4NEJFODQiIHJ4PSIzIiByeT0iMyIgc3R5bGU9InN0cm9rZTojMDM4MDQ4O3N0cm9rZS13aWR0aDoxOyIvPjx0ZXh0IGZpbGw9IiMwMDAwMDAiIGZvbnQtZmFtaWx5PSJzYW5zLXNlcmlmIiBmb250LXNpemU9IjE0IiBsZW5ndGhBZGp1c3Q9InNwYWNpbmciIHRleHRMZW5ndGg9IjU1MyIgeD0iMTI2Mi41IiB5PSIzNTIuMTg3NSI+UmVzdWx0IGNoZWNrUmV2b2tlKExvbmcgYWN0aXZpdHlJZCwgRW51bSZsdDtDb25zdGFudHMuQWN0aXZpdHlTdGF0ZSZndDsgY3VycmVudFN0YXRlKTwvdGV4dD48ZWxsaXBzZSBjeD0iMTI1My41IiBjeT0iMzYyLjkyOTciIGZpbGw9IiM4NEJFODQiIHJ4PSIzIiByeT0iMyIgc3R5bGU9InN0cm9rZTojMDM4MDQ4O3N0cm9rZS13aWR0aDoxOyIvPjx0ZXh0IGZpbGw9IiMwMDAwMDAiIGZvbnQtZmFtaWx5PSJzYW5zLXNlcmlmIiBmb250LXNpemU9IjE0IiBsZW5ndGhBZGp1c3Q9InNwYWNpbmciIHRleHRMZW5ndGg9IjUxMSIgeD0iMTI2Mi41IiB5PSIzNjcuMTcxOSI+UmVzdWx0IGNsb3NlKExvbmcgYWN0aXZpdHlJZCwgRW51bSZsdDtDb25zdGFudHMuQWN0aXZpdHlTdGF0ZSZndDsgY3VycmVudFN0YXRlKTwvdGV4dD48ZWxsaXBzZSBjeD0iMTI1My41IiBjeT0iMzc3LjkxNDEiIGZpbGw9IiM4NEJFODQiIHJ4PSIzIiByeT0iMyIgc3R5bGU9InN0cm9rZTojMDM4MDQ4O3N0cm9rZS13aWR0aDoxOyIvPjx0ZXh0IGZpbGw9IiMwMDAwMDAiIGZvbnQtZmFtaWx5PSJzYW5zLXNlcmlmIiBmb250LXNpemU9IjE0IiBsZW5ndGhBZGp1c3Q9InNwYWNpbmciIHRleHRMZW5ndGg9IjUwNCIgeD0iMTI2Mi41IiB5PSIzODIuMTU2MyI+UmVzdWx0IG9wZW4oTG9uZyBhY3Rpdml0eUlkLCBFbnVtJmx0O0NvbnN0YW50cy5BY3Rpdml0eVN0YXRlJmd0OyBjdXJyZW50U3RhdGUpPC90ZXh0PjxlbGxpcHNlIGN4PSIxMjUzLjUiIGN5PSIzOTIuODk4NCIgZmlsbD0iIzg0QkU4NCIgcng9IjMiIHJ5PSIzIiBzdHlsZT0ic3Ryb2tlOiMwMzgwNDg7c3Ryb2tlLXdpZHRoOjE7Ii8+PHRleHQgZmlsbD0iIzAwMDAwMCIgZm9udC1mYW1pbHk9InNhbnMtc2VyaWYiIGZvbnQtc2l6ZT0iMTQiIGxlbmd0aEFkanVzdD0ic3BhY2luZyIgdGV4dExlbmd0aD0iNTExIiB4PSIxMjYyLjUiIHk9IjM5Ny4xNDA2Ij5SZXN1bHQgZG9pbmcoTG9uZyBhY3Rpdml0eUlkLCBFbnVtJmx0O0NvbnN0YW50cy5BY3Rpdml0eVN0YXRlJmd0OyBjdXJyZW50U3RhdGUpPC90ZXh0PjwvZz48IS0tY2xhc3MgT3BlblN0YXRlLS0+PGcgY2xhc3M9ImVudGl0eSIgZGF0YS1lbnRpdHk9Ik9wZW5TdGF0ZSIgZGF0YS1zb3VyY2UtbGluZT0iODUiIGRhdGEtdWlkPSJlbnQwMDEwIiBpZD0iZW50aXR5X09wZW5TdGF0ZSI+PHJlY3QgZmlsbD0iI0YxRjFGMSIgaGVpZ2h0PSIxNTIuODkwNiIgcng9IjIuNSIgcnk9IjIuNSIgc3R5bGU9InN0cm9rZTojMTgxODE4O3N0cm9rZS13aWR0aDowLjU7IiB3aWR0aD0iNTc5IiB4PSIxODU2LjUiIHk9IjI1MCIvPjxlbGxpcHNlIGN4PSIyMTEwLjI1IiBjeT0iMjY2IiBmaWxsPSIjQUREMUIyIiByeD0iMTEiIHJ5PSIxMSIgc3R5bGU9InN0cm9rZTojMTgxODE4O3N0cm9rZS13aWR0aDoxOyIvPjxwYXRoIGQ9Ik0yMTA3Ljg3NSwyNzAuMjUgTDIxMDcuODc1LDI3MiBMMjExMi44MTI1LDI3MiBMMjExMi44MTI1LDI3MC4yNSBMMjEwNy44NzUsMjcwLjI1IFogTTIxMDguNTYyNSwyNzAuOTM3NSBRMjEwOC41NjI1LDI3MC45Mzc1IDIxMDguNTYyNSwyNjEuNzUgTDIxMDYuODEyNSwyNjEuNzUgUTIxMDYuODEyNSwyNjEuNzUgMjEwNi44MTI1LDI3MC45Mzc1IEwyMTA4LjU2MjUsMjcwLjkzNzUgWiBNMjExMi4xMjUsMjcwLjkzNzUgTDIxMTMuODc1LDI3MC45Mzc1IFEyMTEzLjg3NSwyNzAuOTM3NSAyMTEzLjg3NSwyNjguMTI1IEwyMTEyLjEyNSwyNjguMTI1IFEyMTEyLjEyNSwyNjguMTI1IDIxMTIuMTI1LDI3MC45Mzc1IFogTTIxMTIuMTI1LDI2MS43NSBRMjExMi4xMjUsMjYxLjc1IDIxMTIuMTI1LDI2NC41NjI1IEwyMTEzLjg3NSwyNjQuNTYyNSBRMjExMy44NzUsMjY0LjU2MjUgMjExMy44NzUsMjYxLjc1IEwyMTEyLjEyNSwyNjEuNzUgWiBNMjEwNy44NzUsMjYyLjQzNzUgTDIxMTIuODEyNSwyNjIuNDM3NSBMMjExMi44MTI1LDI2MC42ODc1IEwyMTA3Ljg3NSwyNjAuNjg3NSBMMjEwNy44NzUsMjYyLjQzNzUgWiAiIGZpbGw9IiMwMDAwMDAiLz48dGV4dCBmaWxsPSIjMDAwMDAwIiBmb250LWZhbWlseT0ic2Fucy1zZXJpZiIgZm9udC1zaXplPSIxNCIgbGVuZ3RoQWRqdXN0PSJzcGFjaW5nIiB0ZXh0TGVuZ3RoPSI2MyIgeD0iMjEzMC43NSIgeT0iMjcxLjc0MjIiPk9wZW5TdGF0ZTwvdGV4dD48bGluZSBzdHlsZT0ic3Ryb2tlOiMxODE4MTg7c3Ryb2tlLXdpZHRoOjAuNTsiIHgxPSIxODU3LjUiIHgyPSIyNDM0LjUiIHkxPSIyODIiIHkyPSIyODIiLz48bGluZSBzdHlsZT0ic3Ryb2tlOiMxODE4MTg7c3Ryb2tlLXdpZHRoOjAuNTsiIHgxPSIxODU3LjUiIHgyPSIyNDM0LjUiIHkxPSIyOTAiIHkyPSIyOTAiLz48ZWxsaXBzZSBjeD0iMTg2Ny41IiBjeT0iMzAyLjk5MjIiIGZpbGw9IiM4NEJFODQiIHJ4PSIzIiByeT0iMyIgc3R5bGU9InN0cm9rZTojMDM4MDQ4O3N0cm9rZS13aWR0aDoxOyIvPjx0ZXh0IGZpbGw9IiMwMDAwMDAiIGZvbnQtZmFtaWx5PSJzYW5zLXNlcmlmIiBmb250LXNpemU9IjE0IiBsZW5ndGhBZGp1c3Q9InNwYWNpbmciIHRleHRMZW5ndGg9IjU1MyIgeD0iMTg3Ni41IiB5PSIzMDcuMjM0NCI+UmVzdWx0IGFycmFpZ25tZW50KExvbmcgYWN0aXZpdHlJZCwgRW51bSZsdDtDb25zdGFudHMuQWN0aXZpdHlTdGF0ZSZndDsgY3VycmVudFN0YXRlKTwvdGV4dD48ZWxsaXBzZSBjeD0iMTg2Ny41IiBjeT0iMzE3Ljk3NjYiIGZpbGw9IiM4NEJFODQiIHJ4PSIzIiByeT0iMyIgc3R5bGU9InN0cm9rZTojMDM4MDQ4O3N0cm9rZS13aWR0aDoxOyIvPjx0ZXh0IGZpbGw9IiMwMDAwMDAiIGZvbnQtZmFtaWx5PSJzYW5zLXNlcmlmIiBmb250LXNpemU9IjE0IiBsZW5ndGhBZGp1c3Q9InNwYWNpbmciIHRleHRMZW5ndGg9IjUzOSIgeD0iMTg3Ni41IiB5PSIzMjIuMjE4OCI+UmVzdWx0IGNoZWNrUGFzcyhMb25nIGFjdGl2aXR5SWQsIEVudW0mbHQ7Q29uc3RhbnRzLkFjdGl2aXR5U3RhdGUmZ3Q7IGN1cnJlbnRTdGF0ZSk8L3RleHQ+PGVsbGlwc2UgY3g9IjE4NjcuNSIgY3k9IjMzMi45NjA5IiBmaWxsPSIjODRCRTg0IiByeD0iMyIgcnk9IjMiIHN0eWxlPSJzdHJva2U6IzAzODA0ODtzdHJva2Utd2lkdGg6MTsiLz48dGV4dCBmaWxsPSIjMDAwMDAwIiBmb250LWZhbWlseT0ic2Fucy1zZXJpZiIgZm9udC1zaXplPSIxNCIgbGVuZ3RoQWRqdXN0PSJzcGFjaW5nIiB0ZXh0TGVuZ3RoPSI1NTMiIHg9IjE4NzYuNSIgeT0iMzM3LjIwMzEiPlJlc3VsdCBjaGVja1JlZnVzZShMb25nIGFjdGl2aXR5SWQsIEVudW0mbHQ7Q29uc3RhbnRzLkFjdGl2aXR5U3RhdGUmZ3Q7IGN1cnJlbnRTdGF0ZSk8L3RleHQ+PGVsbGlwc2UgY3g9IjE4NjcuNSIgY3k9IjM0Ny45NDUzIiBmaWxsPSIjODRCRTg0IiByeD0iMyIgcnk9IjMiIHN0eWxlPSJzdHJva2U6IzAzODA0ODtzdHJva2Utd2lkdGg6MTsiLz48dGV4dCBmaWxsPSIjMDAwMDAwIiBmb250LWZhbWlseT0ic2Fucy1zZXJpZiIgZm9udC1zaXplPSIxNCIgbGVuZ3RoQWRqdXN0PSJzcGFjaW5nIiB0ZXh0TGVuZ3RoPSI1NTMiIHg9IjE4NzYuNSIgeT0iMzUyLjE4NzUiPlJlc3VsdCBjaGVja1Jldm9rZShMb25nIGFjdGl2aXR5SWQsIEVudW0mbHQ7Q29uc3RhbnRzLkFjdGl2aXR5U3RhdGUmZ3Q7IGN1cnJlbnRTdGF0ZSk8L3RleHQ+PGVsbGlwc2UgY3g9IjE4NjcuNSIgY3k9IjM2Mi45Mjk3IiBmaWxsPSIjODRCRTg0IiByeD0iMyIgcnk9IjMiIHN0eWxlPSJzdHJva2U6IzAzODA0ODtzdHJva2Utd2lkdGg6MTsiLz48dGV4dCBmaWxsPSIjMDAwMDAwIiBmb250LWZhbWlseT0ic2Fucy1zZXJpZiIgZm9udC1zaXplPSIxNCIgbGVuZ3RoQWRqdXN0PSJzcGFjaW5nIiB0ZXh0TGVuZ3RoPSI1MTEiIHg9IjE4NzYuNSIgeT0iMzY3LjE3MTkiPlJlc3VsdCBjbG9zZShMb25nIGFjdGl2aXR5SWQsIEVudW0mbHQ7Q29uc3RhbnRzLkFjdGl2aXR5U3RhdGUmZ3Q7IGN1cnJlbnRTdGF0ZSk8L3RleHQ+PGVsbGlwc2UgY3g9IjE4NjcuNSIgY3k9IjM3Ny45MTQxIiBmaWxsPSIjODRCRTg0IiByeD0iMyIgcnk9IjMiIHN0eWxlPSJzdHJva2U6IzAzODA0ODtzdHJva2Utd2lkdGg6MTsiLz48dGV4dCBmaWxsPSIjMDAwMDAwIiBmb250LWZhbWlseT0ic2Fucy1zZXJpZiIgZm9udC1zaXplPSIxNCIgbGVuZ3RoQWRqdXN0PSJzcGFjaW5nIiB0ZXh0TGVuZ3RoPSI1MDQiIHg9IjE4NzYuNSIgeT0iMzgyLjE1NjMiPlJlc3VsdCBvcGVuKExvbmcgYWN0aXZpdHlJZCwgRW51bSZsdDtDb25zdGFudHMuQWN0aXZpdHlTdGF0ZSZndDsgY3VycmVudFN0YXRlKTwvdGV4dD48ZWxsaXBzZSBjeD0iMTg2Ny41IiBjeT0iMzkyLjg5ODQiIGZpbGw9IiM4NEJFODQiIHJ4PSIzIiByeT0iMyIgc3R5bGU9InN0cm9rZTojMDM4MDQ4O3N0cm9rZS13aWR0aDoxOyIvPjx0ZXh0IGZpbGw9IiMwMDAwMDAiIGZvbnQtZmFtaWx5PSJzYW5zLXNlcmlmIiBmb250LXNpemU9IjE0IiBsZW5ndGhBZGp1c3Q9InNwYWNpbmciIHRleHRMZW5ndGg9IjUxMSIgeD0iMTg3Ni41IiB5PSIzOTcuMTQwNiI+UmVzdWx0IGRvaW5nKExvbmcgYWN0aXZpdHlJZCwgRW51bSZsdDtDb25zdGFudHMuQWN0aXZpdHlTdGF0ZSZndDsgY3VycmVudFN0YXRlKTwvdGV4dD48L2c+PCEtLWNsYXNzIERvaW5nU3RhdGUtLT48ZyBjbGFzcz0iZW50aXR5IiBkYXRhLWVudGl0eT0iRG9pbmdTdGF0ZSIgZGF0YS1zb3VyY2UtbGluZT0iOTUiIGRhdGEtdWlkPSJlbnQwMDExIiBpZD0iZW50aXR5X0RvaW5nU3RhdGUiPjxyZWN0IGZpbGw9IiNGMUYxRjEiIGhlaWdodD0iMTUyLjg5MDYiIHJ4PSIyLjUiIHJ5PSIyLjUiIHN0eWxlPSJzdHJva2U6IzE4MTgxODtzdHJva2Utd2lkdGg6MC41OyIgd2lkdGg9IjU3OSIgeD0iMjQ3MC41IiB5PSIyNTAiLz48ZWxsaXBzZSBjeD0iMjcyMC43NSIgY3k9IjI2NiIgZmlsbD0iI0FERDFCMiIgcng9IjExIiByeT0iMTEiIHN0eWxlPSJzdHJva2U6IzE4MTgxODtzdHJva2Utd2lkdGg6MTsiLz48cGF0aCBkPSJNMjcxOC4zNzUsMjcwLjI1IEwyNzE4LjM3NSwyNzIgTDI3MjMuMzEyNSwyNzIgTDI3MjMuMzEyNSwyNzAuMjUgTDI3MTguMzc1LDI3MC4yNSBaIE0yNzE5LjA2MjUsMjcwLjkzNzUgUTI3MTkuMDYyNSwyNzAuOTM3NSAyNzE5LjA2MjUsMjYxLjc1IEwyNzE3LjMxMjUsMjYxLjc1IFEyNzE3LjMxMjUsMjYxLjc1IDI3MTcuMzEyNSwyNzAuOTM3NSBMMjcxOS4wNjI1LDI3MC45Mzc1IFogTTI3MjIuNjI1LDI3MC45Mzc1IEwyNzI0LjM3NSwyNzAuOTM3NSBRMjcyNC4zNzUsMjcwLjkzNzUgMjcyNC4zNzUsMjY4LjEyNSBMMjcyMi42MjUsMjY4LjEyNSBRMjcyMi42MjUsMjY4LjEyNSAyNzIyLjYyNSwyNzAuOTM3NSBaIE0yNzIyLjYyNSwyNjEuNzUgUTI3MjIuNjI1LDI2MS43NSAyNzIyLjYyNSwyNjQuNTYyNSBMMjcyNC4zNzUsMjY0LjU2MjUgUTI3MjQuMzc1LDI2NC41NjI1IDI3MjQuMzc1LDI2MS43NSBMMjcyMi42MjUsMjYxLjc1IFogTTI3MTguMzc1LDI2Mi40Mzc1IEwyNzIzLjMxMjUsMjYyLjQzNzUgTDI3MjMuMzEyNSwyNjAuNjg3NSBMMjcxOC4zNzUsMjYwLjY4NzUgTDI3MTguMzc1LDI2Mi40Mzc1IFogIiBmaWxsPSIjMDAwMDAwIi8+PHRleHQgZmlsbD0iIzAwMDAwMCIgZm9udC1mYW1pbHk9InNhbnMtc2VyaWYiIGZvbnQtc2l6ZT0iMTQiIGxlbmd0aEFkanVzdD0ic3BhY2luZyIgdGV4dExlbmd0aD0iNzAiIHg9IjI3NDEuMjUiIHk9IjI3MS43NDIyIj5Eb2luZ1N0YXRlPC90ZXh0PjxsaW5lIHN0eWxlPSJzdHJva2U6IzE4MTgxODtzdHJva2Utd2lkdGg6MC41OyIgeDE9IjI0NzEuNSIgeDI9IjMwNDguNSIgeTE9IjI4MiIgeTI9IjI4MiIvPjxsaW5lIHN0eWxlPSJzdHJva2U6IzE4MTgxODtzdHJva2Utd2lkdGg6MC41OyIgeDE9IjI0NzEuNSIgeDI9IjMwNDguNSIgeTE9IjI5MCIgeTI9IjI5MCIvPjxlbGxpcHNlIGN4PSIyNDgxLjUiIGN5PSIzMDIuOTkyMiIgZmlsbD0iIzg0QkU4NCIgcng9IjMiIHJ5PSIzIiBzdHlsZT0ic3Ryb2tlOiMwMzgwNDg7c3Ryb2tlLXdpZHRoOjE7Ii8+PHRleHQgZmlsbD0iIzAwMDAwMCIgZm9udC1mYW1pbHk9InNhbnMtc2VyaWYiIGZvbnQtc2l6ZT0iMTQiIGxlbmd0aEFkanVzdD0ic3BhY2luZyIgdGV4dExlbmd0aD0iNTUzIiB4PSIyNDkwLjUiIHk9IjMwNy4yMzQ0Ij5SZXN1bHQgYXJyYWlnbm1lbnQoTG9uZyBhY3Rpdml0eUlkLCBFbnVtJmx0O0NvbnN0YW50cy5BY3Rpdml0eVN0YXRlJmd0OyBjdXJyZW50U3RhdGUpPC90ZXh0PjxlbGxpcHNlIGN4PSIyNDgxLjUiIGN5PSIzMTcuOTc2NiIgZmlsbD0iIzg0QkU4NCIgcng9IjMiIHJ5PSIzIiBzdHlsZT0ic3Ryb2tlOiMwMzgwNDg7c3Ryb2tlLXdpZHRoOjE7Ii8+PHRleHQgZmlsbD0iIzAwMDAwMCIgZm9udC1mYW1pbHk9InNhbnMtc2VyaWYiIGZvbnQtc2l6ZT0iMTQiIGxlbmd0aEFkanVzdD0ic3BhY2luZyIgdGV4dExlbmd0aD0iNTM5IiB4PSIyNDkwLjUiIHk9IjMyMi4yMTg4Ij5SZXN1bHQgY2hlY2tQYXNzKExvbmcgYWN0aXZpdHlJZCwgRW51bSZsdDtDb25zdGFudHMuQWN0aXZpdHlTdGF0ZSZndDsgY3VycmVudFN0YXRlKTwvdGV4dD48ZWxsaXBzZSBjeD0iMjQ4MS41IiBjeT0iMzMyLjk2MDkiIGZpbGw9IiM4NEJFODQiIHJ4PSIzIiByeT0iMyIgc3R5bGU9InN0cm9rZTojMDM4MDQ4O3N0cm9rZS13aWR0aDoxOyIvPjx0ZXh0IGZpbGw9IiMwMDAwMDAiIGZvbnQtZmFtaWx5PSJzYW5zLXNlcmlmIiBmb250LXNpemU9IjE0IiBsZW5ndGhBZGp1c3Q9InNwYWNpbmciIHRleHRMZW5ndGg9IjU1MyIgeD0iMjQ5MC41IiB5PSIzMzcuMjAzMSI+UmVzdWx0IGNoZWNrUmVmdXNlKExvbmcgYWN0aXZpdHlJZCwgRW51bSZsdDtDb25zdGFudHMuQWN0aXZpdHlTdGF0ZSZndDsgY3VycmVudFN0YXRlKTwvdGV4dD48ZWxsaXBzZSBjeD0iMjQ4MS41IiBjeT0iMzQ3Ljk0NTMiIGZpbGw9IiM4NEJFODQiIHJ4PSIzIiByeT0iMyIgc3R5bGU9InN0cm9rZTojMDM4MDQ4O3N0cm9rZS13aWR0aDoxOyIvPjx0ZXh0IGZpbGw9IiMwMDAwMDAiIGZvbnQtZmFtaWx5PSJzYW5zLXNlcmlmIiBmb250LXNpemU9IjE0IiBsZW5ndGhBZGp1c3Q9InNwYWNpbmciIHRleHRMZW5ndGg9IjU1MyIgeD0iMjQ5MC41IiB5PSIzNTIuMTg3NSI+UmVzdWx0IGNoZWNrUmV2b2tlKExvbmcgYWN0aXZpdHlJZCwgRW51bSZsdDtDb25zdGFudHMuQWN0aXZpdHlTdGF0ZSZndDsgY3VycmVudFN0YXRlKTwvdGV4dD48ZWxsaXBzZSBjeD0iMjQ4MS41IiBjeT0iMzYyLjkyOTciIGZpbGw9IiM4NEJFODQiIHJ4PSIzIiByeT0iMyIgc3R5bGU9InN0cm9rZTojMDM4MDQ4O3N0cm9rZS13aWR0aDoxOyIvPjx0ZXh0IGZpbGw9IiMwMDAwMDAiIGZvbnQtZmFtaWx5PSJzYW5zLXNlcmlmIiBmb250LXNpemU9IjE0IiBsZW5ndGhBZGp1c3Q9InNwYWNpbmciIHRleHRMZW5ndGg9IjUxMSIgeD0iMjQ5MC41IiB5PSIzNjcuMTcxOSI+UmVzdWx0IGNsb3NlKExvbmcgYWN0aXZpdHlJZCwgRW51bSZsdDtDb25zdGFudHMuQWN0aXZpdHlTdGF0ZSZndDsgY3VycmVudFN0YXRlKTwvdGV4dD48ZWxsaXBzZSBjeD0iMjQ4MS41IiBjeT0iMzc3LjkxNDEiIGZpbGw9IiM4NEJFODQiIHJ4PSIzIiByeT0iMyIgc3R5bGU9InN0cm9rZTojMDM4MDQ4O3N0cm9rZS13aWR0aDoxOyIvPjx0ZXh0IGZpbGw9IiMwMDAwMDAiIGZvbnQtZmFtaWx5PSJzYW5zLXNlcmlmIiBmb250LXNpemU9IjE0IiBsZW5ndGhBZGp1c3Q9InNwYWNpbmciIHRleHRMZW5ndGg9IjUwNCIgeD0iMjQ5MC41IiB5PSIzODIuMTU2MyI+UmVzdWx0IG9wZW4oTG9uZyBhY3Rpdml0eUlkLCBFbnVtJmx0O0NvbnN0YW50cy5BY3Rpdml0eVN0YXRlJmd0OyBjdXJyZW50U3RhdGUpPC90ZXh0PjxlbGxpcHNlIGN4PSIyNDgxLjUiIGN5PSIzOTIuODk4NCIgZmlsbD0iIzg0QkU4NCIgcng9IjMiIHJ5PSIzIiBzdHlsZT0ic3Ryb2tlOiMwMzgwNDg7c3Ryb2tlLXdpZHRoOjE7Ii8+PHRleHQgZmlsbD0iIzAwMDAwMCIgZm9udC1mYW1pbHk9InNhbnMtc2VyaWYiIGZvbnQtc2l6ZT0iMTQiIGxlbmd0aEFkanVzdD0ic3BhY2luZyIgdGV4dExlbmd0aD0iNTExIiB4PSIyNDkwLjUiIHk9IjM5Ny4xNDA2Ij5SZXN1bHQgZG9pbmcoTG9uZyBhY3Rpdml0eUlkLCBFbnVtJmx0O0NvbnN0YW50cy5BY3Rpdml0eVN0YXRlJmd0OyBjdXJyZW50U3RhdGUpPC90ZXh0PjwvZz48IS0tY2xhc3MgQ2xvc2VTdGF0ZS0tPjxnIGNsYXNzPSJlbnRpdHkiIGRhdGEtZW50aXR5PSJDbG9zZVN0YXRlIiBkYXRhLXNvdXJjZS1saW5lPSIxMDUiIGRhdGEtdWlkPSJlbnQwMDEyIiBpZD0iZW50aXR5X0Nsb3NlU3RhdGUiPjxyZWN0IGZpbGw9IiNGMUYxRjEiIGhlaWdodD0iMTUyLjg5MDYiIHJ4PSIyLjUiIHJ5PSIyLjUiIHN0eWxlPSJzdHJva2U6IzE4MTgxODtzdHJva2Utd2lkdGg6MC41OyIgd2lkdGg9IjU3OSIgeD0iMzA4NC41IiB5PSIyNTAiLz48ZWxsaXBzZSBjeD0iMzMzNC43NSIgY3k9IjI2NiIgZmlsbD0iI0FERDFCMiIgcng9IjExIiByeT0iMTEiIHN0eWxlPSJzdHJva2U6IzE4MTgxODtzdHJva2Utd2lkdGg6MTsiLz48cGF0aCBkPSJNMzMzMi4zNzUsMjcwLjI1IEwzMzMyLjM3NSwyNzIgTDMzMzcuMzEyNSwyNzIgTDMzMzcuMzEyNSwyNzAuMjUgTDMzMzIuMzc1LDI3MC4yNSBaIE0zMzMzLjA2MjUsMjcwLjkzNzUgUTMzMzMuMDYyNSwyNzAuOTM3NSAzMzMzLjA2MjUsMjYxLjc1IEwzMzMxLjMxMjUsMjYxLjc1IFEzMzMxLjMxMjUsMjYxLjc1IDMzMzEuMzEyNSwyNzAuOTM3NSBMMzMzMy4wNjI1LDI3MC45Mzc1IFogTTMzMzYuNjI1LDI3MC45Mzc1IEwzMzM4LjM3NSwyNzAuOTM3NSBRMzMzOC4zNzUsMjcwLjkzNzUgMzMzOC4zNzUsMjY4LjEyNSBMMzMzNi42MjUsMjY4LjEyNSBRMzMzNi42MjUsMjY4LjEyNSAzMzM2LjYyNSwyNzAuOTM3NSBaIE0zMzM2LjYyNSwyNjEuNzUgUTMzMzYuNjI1LDI2MS43NSAzMzM2LjYyNSwyNjQuNTYyNSBMMzMzOC4zNzUsMjY0LjU2MjUgUTMzMzguMzc1LDI2NC41NjI1IDMzMzguMzc1LDI2MS43NSBMMzMzNi42MjUsMjYxLjc1IFogTTMzMzIuMzc1LDI2Mi40Mzc1IEwzMzM3LjMxMjUsMjYyLjQzNzUgTDMzMzcuMzEyNSwyNjAuNjg3NSBMMzMzMi4zNzUsMjYwLjY4NzUgTDMzMzIuMzc1LDI2Mi40Mzc1IFogIiBmaWxsPSIjMDAwMDAwIi8+PHRleHQgZmlsbD0iIzAwMDAwMCIgZm9udC1mYW1pbHk9InNhbnMtc2VyaWYiIGZvbnQtc2l6ZT0iMTQiIGxlbmd0aEFkanVzdD0ic3BhY2luZyIgdGV4dExlbmd0aD0iNzAiIHg9IjMzNTUuMjUiIHk9IjI3MS43NDIyIj5DbG9zZVN0YXRlPC90ZXh0PjxsaW5lIHN0eWxlPSJzdHJva2U6IzE4MTgxODtzdHJva2Utd2lkdGg6MC41OyIgeDE9IjMwODUuNSIgeDI9IjM2NjIuNSIgeTE9IjI4MiIgeTI9IjI4MiIvPjxsaW5lIHN0eWxlPSJzdHJva2U6IzE4MTgxODtzdHJva2Utd2lkdGg6MC41OyIgeDE9IjMwODUuNSIgeDI9IjM2NjIuNSIgeTE9IjI5MCIgeTI9IjI5MCIvPjxlbGxpcHNlIGN4PSIzMDk1LjUiIGN5PSIzMDIuOTkyMiIgZmlsbD0iIzg0QkU4NCIgcng9IjMiIHJ5PSIzIiBzdHlsZT0ic3Ryb2tlOiMwMzgwNDg7c3Ryb2tlLXdpZHRoOjE7Ii8+PHRleHQgZmlsbD0iIzAwMDAwMCIgZm9udC1mYW1pbHk9InNhbnMtc2VyaWYiIGZvbnQtc2l6ZT0iMTQiIGxlbmd0aEFkanVzdD0ic3BhY2luZyIgdGV4dExlbmd0aD0iNTUzIiB4PSIzMTA0LjUiIHk9IjMwNy4yMzQ0Ij5SZXN1bHQgYXJyYWlnbm1lbnQoTG9uZyBhY3Rpdml0eUlkLCBFbnVtJmx0O0NvbnN0YW50cy5BY3Rpdml0eVN0YXRlJmd0OyBjdXJyZW50U3RhdGUpPC90ZXh0PjxlbGxpcHNlIGN4PSIzMDk1LjUiIGN5PSIzMTcuOTc2NiIgZmlsbD0iIzg0QkU4NCIgcng9IjMiIHJ5PSIzIiBzdHlsZT0ic3Ryb2tlOiMwMzgwNDg7c3Ryb2tlLXdpZHRoOjE7Ii8+PHRleHQgZmlsbD0iIzAwMDAwMCIgZm9udC1mYW1pbHk9InNhbnMtc2VyaWYiIGZvbnQtc2l6ZT0iMTQiIGxlbmd0aEFkanVzdD0ic3BhY2luZyIgdGV4dExlbmd0aD0iNTM5IiB4PSIzMTA0LjUiIHk9IjMyMi4yMTg4Ij5SZXN1bHQgY2hlY2tQYXNzKExvbmcgYWN0aXZpdHlJZCwgRW51bSZsdDtDb25zdGFudHMuQWN0aXZpdHlTdGF0ZSZndDsgY3VycmVudFN0YXRlKTwvdGV4dD48ZWxsaXBzZSBjeD0iMzA5NS41IiBjeT0iMzMyLjk2MDkiIGZpbGw9IiM4NEJFODQiIHJ4PSIzIiByeT0iMyIgc3R5bGU9InN0cm9rZTojMDM4MDQ4O3N0cm9rZS13aWR0aDoxOyIvPjx0ZXh0IGZpbGw9IiMwMDAwMDAiIGZvbnQtZmFtaWx5PSJzYW5zLXNlcmlmIiBmb250LXNpemU9IjE0IiBsZW5ndGhBZGp1c3Q9InNwYWNpbmciIHRleHRMZW5ndGg9IjU1MyIgeD0iMzEwNC41IiB5PSIzMzcuMjAzMSI+UmVzdWx0IGNoZWNrUmVmdXNlKExvbmcgYWN0aXZpdHlJZCwgRW51bSZsdDtDb25zdGFudHMuQWN0aXZpdHlTdGF0ZSZndDsgY3VycmVudFN0YXRlKTwvdGV4dD48ZWxsaXBzZSBjeD0iMzA5NS41IiBjeT0iMzQ3Ljk0NTMiIGZpbGw9IiM4NEJFODQiIHJ4PSIzIiByeT0iMyIgc3R5bGU9InN0cm9rZTojMDM4MDQ4O3N0cm9rZS13aWR0aDoxOyIvPjx0ZXh0IGZpbGw9IiMwMDAwMDAiIGZvbnQtZmFtaWx5PSJzYW5zLXNlcmlmIiBmb250LXNpemU9IjE0IiBsZW5ndGhBZGp1c3Q9InNwYWNpbmciIHRleHRMZW5ndGg9IjU1MyIgeD0iMzEwNC41IiB5PSIzNTIuMTg3NSI+UmVzdWx0IGNoZWNrUmV2b2tlKExvbmcgYWN0aXZpdHlJZCwgRW51bSZsdDtDb25zdGFudHMuQWN0aXZpdHlTdGF0ZSZndDsgY3VycmVudFN0YXRlKTwvdGV4dD48ZWxsaXBzZSBjeD0iMzA5NS41IiBjeT0iMzYyLjkyOTciIGZpbGw9IiM4NEJFODQiIHJ4PSIzIiByeT0iMyIgc3R5bGU9InN0cm9rZTojMDM4MDQ4O3N0cm9rZS13aWR0aDoxOyIvPjx0ZXh0IGZpbGw9IiMwMDAwMDAiIGZvbnQtZmFtaWx5PSJzYW5zLXNlcmlmIiBmb250LXNpemU9IjE0IiBsZW5ndGhBZGp1c3Q9InNwYWNpbmciIHRleHRMZW5ndGg9IjUxMSIgeD0iMzEwNC41IiB5PSIzNjcuMTcxOSI+UmVzdWx0IGNsb3NlKExvbmcgYWN0aXZpdHlJZCwgRW51bSZsdDtDb25zdGFudHMuQWN0aXZpdHlTdGF0ZSZndDsgY3VycmVudFN0YXRlKTwvdGV4dD48ZWxsaXBzZSBjeD0iMzA5NS41IiBjeT0iMzc3LjkxNDEiIGZpbGw9IiM4NEJFODQiIHJ4PSIzIiByeT0iMyIgc3R5bGU9InN0cm9rZTojMDM4MDQ4O3N0cm9rZS13aWR0aDoxOyIvPjx0ZXh0IGZpbGw9IiMwMDAwMDAiIGZvbnQtZmFtaWx5PSJzYW5zLXNlcmlmIiBmb250LXNpemU9IjE0IiBsZW5ndGhBZGp1c3Q9InNwYWNpbmciIHRleHRMZW5ndGg9IjUwNCIgeD0iMzEwNC41IiB5PSIzODIuMTU2MyI+UmVzdWx0IG9wZW4oTG9uZyBhY3Rpdml0eUlkLCBFbnVtJmx0O0NvbnN0YW50cy5BY3Rpdml0eVN0YXRlJmd0OyBjdXJyZW50U3RhdGUpPC90ZXh0PjxlbGxpcHNlIGN4PSIzMDk1LjUiIGN5PSIzOTIuODk4NCIgZmlsbD0iIzg0QkU4NCIgcng9IjMiIHJ5PSIzIiBzdHlsZT0ic3Ryb2tlOiMwMzgwNDg7c3Ryb2tlLXdpZHRoOjE7Ii8+PHRleHQgZmlsbD0iIzAwMDAwMCIgZm9udC1mYW1pbHk9InNhbnMtc2VyaWYiIGZvbnQtc2l6ZT0iMTQiIGxlbmd0aEFkanVzdD0ic3BhY2luZyIgdGV4dExlbmd0aD0iNTExIiB4PSIzMTA0LjUiIHk9IjM5Ny4xNDA2Ij5SZXN1bHQgZG9pbmcoTG9uZyBhY3Rpdml0eUlkLCBFbnVtJmx0O0NvbnN0YW50cy5BY3Rpdml0eVN0YXRlJmd0OyBjdXJyZW50U3RhdGUpPC90ZXh0PjwvZz48IS0tcmV2ZXJzZSBsaW5rIEFic3RyYWN0U3RhdGUgdG8gQXJyYWlnbm1lbnRTdGF0ZS0tPjxnIGNsYXNzPSJsaW5rIiBkYXRhLWVudGl0eS0xPSJBYnN0cmFjdFN0YXRlIiBkYXRhLWVudGl0eS0yPSJBcnJhaWdubWVudFN0YXRlIiBkYXRhLXNvdXJjZS1saW5lPSIxMTYiIGRhdGEtdWlkPSJsbmsxMyIgaWQ9ImxpbmtfQWJzdHJhY3RTdGF0ZV9BcnJhaWdubWVudFN0YXRlIj48cGF0aCBjb2RlTGluZT0iMTE2IiBkPSJNMzA2Ny40Mzg4LDE0My41MDM2IEMzMjQ5LjM2ODgsMTcwLjkzMzYgMzQ3MC43NywyMDcuMDQgMzY4MSwyNTAgQzM2ODYuNzgsMjUxLjE4IDM2OTIuNjIsMjUyLjQgMzY5OC41LDI1My42NCIgZmlsbD0ibm9uZSIgaWQ9IkFic3RyYWN0U3RhdGUtYmFja3RvLUFycmFpZ25tZW50U3RhdGUiIHN0eWxlPSJzdHJva2U6IzE4MTgxODtzdHJva2Utd2lkdGg6MTsiLz48cG9seWdvbiBmaWxsPSJub25lIiBwb2ludHM9IjMwNDkuNjQsMTQwLjgyLDMwNjYuNTQ0MywxNDkuNDM2NSwzMDY4LjMzMzQsMTM3LjU3MDYsMzA0OS42NCwxNDAuODIiIHN0eWxlPSJzdHJva2U6IzE4MTgxODtzdHJva2Utd2lkdGg6MTsiLz48L2c+PCEtLXJldmVyc2UgbGluayBBYnN0cmFjdFN0YXRlIHRvIFJlZnVzZVN0YXRlLS0+PGcgY2xhc3M9ImxpbmsiIGRhdGEtZW50aXR5LTE9IkFic3RyYWN0U3RhdGUiIGRhdGEtZW50aXR5LTI9IlJlZnVzZVN0YXRlIiBkYXRhLXNvdXJjZS1saW5lPSIxMTciIGRhdGEtdWlkPSJsbmsxNCIgaWQ9ImxpbmtfQWJzdHJhY3RTdGF0ZV9SZWZ1c2VTdGF0ZSI+PHBhdGggY29kZUxpbmU9IjExNyIgZD0iTTMwNjcuNDcyNywxMTYuNjI4NCBDMzM3Ny4zMDI3LDEzNi42MDg0IDM4NjQuNDUsMTc2LjM0IDQyOTUsMjUwIEM0MzAwLjY4LDI1MC45NyA0MzA2LjQxLDI1MS45OSA0MzEyLjE4LDI1My4wNSIgZmlsbD0ibm9uZSIgaWQ9IkFic3RyYWN0U3RhdGUtYmFja3RvLVJlZnVzZVN0YXRlIiBzdHlsZT0ic3Ryb2tlOiMxODE4MTg7c3Ryb2tlLXdpZHRoOjE7Ii8+PHBvbHlnb24gZmlsbD0ibm9uZSIgcG9pbnRzPSIzMDQ5LjUxLDExNS40NywzMDY3LjA4NjYsMTIyLjYxNTksMzA2Ny44NTg4LDExMC42NDA4LDMwNDkuNTEsMTE1LjQ3IiBzdHlsZT0ic3Ryb2tlOiMxODE4MTg7c3Ryb2tlLXdpZHRoOjE7Ii8+PC9nPjwhLS1yZXZlcnNlIGxpbmsgQWJzdHJhY3RTdGF0ZSB0byBFZGl0aW5nU3RhdGUtLT48ZyBjbGFzcz0ibGluayIgZGF0YS1lbnRpdHktMT0iQWJzdHJhY3RTdGF0ZSIgZGF0YS1lbnRpdHktMj0iRWRpdGluZ1N0YXRlIiBkYXRhLXNvdXJjZS1saW5lPSIxMTgiIGRhdGEtdWlkPSJsbmsxNSIgaWQ9ImxpbmtfQWJzdHJhY3RTdGF0ZV9FZGl0aW5nU3RhdGUiPjxwYXRoIGNvZGVMaW5lPSIxMTgiIGQ9Ik0yNDUyLjU1MzUsMTg0LjMzOTggQzI0MzUuMzAzNSwxODcuODA5OCAyNDM1Ljc5LDE4Ny4zOCAyNDE5LDE5MCBDMTg5NC4wMiwyNzEuOTMgMTc1MC43MSwxNzIuODcgMTIyNSwyNTAgQzEyMTkuMywyNTAuODQgMTIxMy41NSwyNTEuNzMgMTIwNy43NiwyNTIuNjgiIGZpbGw9Im5vbmUiIGlkPSJBYnN0cmFjdFN0YXRlLWJhY2t0by1FZGl0aW5nU3RhdGUiIHN0eWxlPSJzdHJva2U6IzE4MTgxODtzdHJva2Utd2lkdGg6MTsiLz48cG9seWdvbiBmaWxsPSJub25lIiBwb2ludHM9IjI0NzAuMiwxODAuNzksMjQ1MS4zNzAyLDE3OC40NTc2LDI0NTMuNzM2NywxOTAuMjIxOSwyNDcwLjIsMTgwLjc5IiBzdHlsZT0ic3Ryb2tlOiMxODE4MTg7c3Ryb2tlLXdpZHRoOjE7Ii8+PC9nPjwhLS1yZXZlcnNlIGxpbmsgQWJzdHJhY3RTdGF0ZSB0byBQYXNzU3RhdGUtLT48ZyBjbGFzcz0ibGluayIgZGF0YS1lbnRpdHktMT0iQWJzdHJhY3RTdGF0ZSIgZGF0YS1lbnRpdHktMj0iUGFzc1N0YXRlIiBkYXRhLXNvdXJjZS1saW5lPSIxMTkiIGRhdGEtdWlkPSJsbmsxNiIgaWQ9ImxpbmtfQWJzdHJhY3RTdGF0ZV9QYXNzU3RhdGUiPjxwYXRoIGNvZGVMaW5lPSIxMTkiIGQ9Ik0yNDUyLjkwMjEsMTgzLjQ1OTYgQzI0MzUuNTQyMSwxODcuMjM5NiAyNDM1Ljg3LDE4Ni45MSAyNDE5LDE5MCBDMjE2NC4wOSwyMzYuNzEgMjA5NC4zMiwyMDUuNjIgMTgzOSwyNTAgQzE4MzMuMzIsMjUwLjk5IDE4MjcuNTksMjUyLjAyIDE4MjEuODMsMjUzLjA5IiBmaWxsPSJub25lIiBpZD0iQWJzdHJhY3RTdGF0ZS1iYWNrdG8tUGFzc1N0YXRlIiBzdHlsZT0ic3Ryb2tlOiMxODE4MTg7c3Ryb2tlLXdpZHRoOjE7Ii8+PHBvbHlnb24gZmlsbD0ibm9uZSIgcG9pbnRzPSIyNDcwLjQ5LDE3OS42MywyNDUxLjYyNTYsMTc3LjU5NywyNDU0LjE3ODYsMTg5LjMyMjMsMjQ3MC40OSwxNzkuNjMiIHN0eWxlPSJzdHJva2U6IzE4MTgxODtzdHJva2Utd2lkdGg6MTsiLz48L2c+PCEtLXJldmVyc2UgbGluayBBYnN0cmFjdFN0YXRlIHRvIE9wZW5TdGF0ZS0tPjxnIGNsYXNzPSJsaW5rIiBkYXRhLWVudGl0eS0xPSJBYnN0cmFjdFN0YXRlIiBkYXRhLWVudGl0eS0yPSJPcGVuU3RhdGUiIGRhdGEtc291cmNlLWxpbmU9IjEyMCIgZGF0YS11aWQ9ImxuazE3IiBpZD0ibGlua19BYnN0cmFjdFN0YXRlX09wZW5TdGF0ZSI+PHBhdGggY29kZUxpbmU9IjEyMCIgZD0iTTI1MTcuNTI4MywxODguNzQ4NSBDMjQ1Ny41NzgzLDIxMC44MTg1IDI0MTAuMDUsMjI4LjMxIDIzNTEuMjUsMjQ5Ljk1IiBmaWxsPSJub25lIiBpZD0iQWJzdHJhY3RTdGF0ZS1iYWNrdG8tT3BlblN0YXRlIiBzdHlsZT0ic3Ryb2tlOiMxODE4MTg7c3Ryb2tlLXdpZHRoOjE7Ii8+PHBvbHlnb24gZmlsbD0ibm9uZSIgcG9pbnRzPSIyNTM0LjQyLDE4Mi41MywyNTE1LjQ1NTQsMTgzLjExNzksMjUxOS42MDExLDE5NC4zNzkxLDI1MzQuNDIsMTgyLjUzIiBzdHlsZT0ic3Ryb2tlOiMxODE4MTg7c3Ryb2tlLXdpZHRoOjE7Ii8+PC9nPjwhLS1yZXZlcnNlIGxpbmsgQWJzdHJhY3RTdGF0ZSB0byBEb2luZ1N0YXRlLS0+PGcgY2xhc3M9ImxpbmsiIGRhdGEtZW50aXR5LTE9IkFic3RyYWN0U3RhdGUiIGRhdGEtZW50aXR5LTI9IkRvaW5nU3RhdGUiIGRhdGEtc291cmNlLWxpbmU9IjEyMSIgZGF0YS11aWQ9ImxuazE4IiBpZD0ibGlua19BYnN0cmFjdFN0YXRlX0RvaW5nU3RhdGUiPjxwYXRoIGNvZGVMaW5lPSIxMjEiIGQ9Ik0yNzYwLDIwMC42OSBDMjc2MCwyMjIuNzIgMjc2MCwyMjguMzcgMjc2MCwyNDkuOTYiIGZpbGw9Im5vbmUiIGlkPSJBYnN0cmFjdFN0YXRlLWJhY2t0by1Eb2luZ1N0YXRlIiBzdHlsZT0ic3Ryb2tlOiMxODE4MTg7c3Ryb2tlLXdpZHRoOjE7Ii8+PHBvbHlnb24gZmlsbD0ibm9uZSIgcG9pbnRzPSIyNzYwLDE4Mi42OSwyNzU0LDIwMC42OSwyNzY2LDIwMC42OSwyNzYwLDE4Mi42OSIgc3R5bGU9InN0cm9rZTojMTgxODE4O3N0cm9rZS13aWR0aDoxOyIvPjwvZz48IS0tcmV2ZXJzZSBsaW5rIEFic3RyYWN0U3RhdGUgdG8gQ2xvc2VTdGF0ZS0tPjxnIGNsYXNzPSJsaW5rIiBkYXRhLWVudGl0eS0xPSJBYnN0cmFjdFN0YXRlIiBkYXRhLWVudGl0eS0yPSJDbG9zZVN0YXRlIiBkYXRhLXNvdXJjZS1saW5lPSIxMjIiIGRhdGEtdWlkPSJsbmsxOSIgaWQ9ImxpbmtfQWJzdHJhY3RTdGF0ZV9DbG9zZVN0YXRlIj48cGF0aCBjb2RlTGluZT0iMTIyIiBkPSJNMzAwMi40NzE3LDE4OC43NDg1IEMzMDYyLjQyMTcsMjEwLjgxODUgMzEwOS45NSwyMjguMzEgMzE2OC43NSwyNDkuOTUiIGZpbGw9Im5vbmUiIGlkPSJBYnN0cmFjdFN0YXRlLWJhY2t0by1DbG9zZVN0YXRlIiBzdHlsZT0ic3Ryb2tlOiMxODE4MTg7c3Ryb2tlLXdpZHRoOjE7Ii8+PHBvbHlnb24gZmlsbD0ibm9uZSIgcG9pbnRzPSIyOTg1LjU4LDE4Mi41MywzMDAwLjM5ODksMTk0LjM3OTEsMzAwNC41NDQ2LDE4My4xMTc5LDI5ODUuNTgsMTgyLjUzIiBzdHlsZT0ic3Ryb2tlOiMxODE4MTg7c3Ryb2tlLXdpZHRoOjE7Ii8+PC9nPjwhLS1yZXZlcnNlIGxpbmsgSVN0YXRlSGFuZGxlciB0byBTdGF0ZUhhbmRsZXJJbXBsLS0+PGcgY2xhc3M9ImxpbmsiIGRhdGEtZW50aXR5LTE9IklTdGF0ZUhhbmRsZXIiIGRhdGEtZW50aXR5LTI9IlN0YXRlSGFuZGxlckltcGwiIGRhdGEtc291cmNlLWxpbmU9IjEyNSIgZGF0YS11aWQ9ImxuazIwIiBpZD0ibGlua19JU3RhdGVIYW5kbGVyX1N0YXRlSGFuZGxlckltcGwiPjxwYXRoIGNvZGVMaW5lPSIxMjUiIGQ9Ik0zMDAsMTkzLjA3IEMzMDAsMjE3LjA2IDMwMCwyMjUuNiAzMDAsMjQ5LjYyIiBmaWxsPSJub25lIiBpZD0iSVN0YXRlSGFuZGxlci1iYWNrdG8tU3RhdGVIYW5kbGVySW1wbCIgc3R5bGU9InN0cm9rZTojMTgxODE4O3N0cm9rZS13aWR0aDoxO3N0cm9rZS1kYXNoYXJyYXk6Ny4wLDcuMDsiLz48cG9seWdvbiBmaWxsPSJub25lIiBwb2ludHM9IjMwMCwxNzUuMDcsMjk0LDE5My4wNywzMDYsMTkzLjA3LDMwMCwxNzUuMDciIHN0eWxlPSJzdHJva2U6IzE4MTgxODtzdHJva2Utd2lkdGg6MTsiLz48L2c+PCEtLXJldmVyc2UgbGluayBTdGF0ZUNvbmZpZyB0byBBcnJhaWdubWVudFN0YXRlLS0+PGcgY2xhc3M9ImxpbmsiIGRhdGEtZW50aXR5LTE9IlN0YXRlQ29uZmlnIiBkYXRhLWVudGl0eS0yPSJBcnJhaWdubWVudFN0YXRlIiBkYXRhLXNvdXJjZS1saW5lPSIxMjgiIGRhdGEtdWlkPSJsbmsyMSIgaWQ9ImxpbmtfU3RhdGVDb25maWdfQXJyYWlnbm1lbnRTdGF0ZSI+PHBhdGggY29kZUxpbmU9IjEyOCIgZD0iTTI0MTMuNjMzNSwxODEuNTkyMyBDMjQzMC43NDM1LDE4NS45ODIzIDI0MzYuMjUsMTg2Ljg4IDI0NTMsMTkwIEMyOTkwLjIxLDI4OS45MyAzMTQwLjMsMTcxLjA1IDM2ODEsMjUwIEMzNjg2LjcsMjUwLjgzIDM2OTIuNDUsMjUxLjcyIDM2OTguMjQsMjUyLjY3IiBmaWxsPSJub25lIiBpZD0iU3RhdGVDb25maWctYmFja3RvLUFycmFpZ25tZW50U3RhdGUiIHN0eWxlPSJzdHJva2U6IzE4MTgxODtzdHJva2Utd2lkdGg6MTsiLz48cG9seWdvbiBmaWxsPSIjMTgxODE4IiBwb2ludHM9IjI0MDIuMDEsMTc4LjYxLDI0MDYuODI3NywxODMuOTc1NywyNDEzLjYzMzUsMTgxLjU5MjMsMjQwOC44MTU5LDE3Ni4yMjY2LDI0MDIuMDEsMTc4LjYxIiBzdHlsZT0ic3Ryb2tlOiMxODE4MTg7c3Ryb2tlLXdpZHRoOjE7Ii8+PHRleHQgZmlsbD0iIzAwMDAwMCIgZm9udC1mYW1pbHk9InNhbnMtc2VyaWYiIGZvbnQtc2l6ZT0iMTMiIGxlbmd0aEFkanVzdD0ic3BhY2luZyIgdGV4dExlbmd0aD0iNi41IiB4PSIyNDEwLjE0MTIiIHk9IjE4MC41NjM0Ij4xPC90ZXh0Pjx0ZXh0IGZpbGw9IiMwMDAwMDAiIGZvbnQtZmFtaWx5PSJzYW5zLXNlcmlmIiBmb250LXNpemU9IjEzIiBsZW5ndGhBZGp1c3Q9InNwYWNpbmciIHRleHRMZW5ndGg9IjYuNSIgeD0iMzY4My41NTYxIiB5PSIyNDkuNTg5NSI+MTwvdGV4dD48L2c+PCEtLXJldmVyc2UgbGluayBTdGF0ZUNvbmZpZyB0byBSZWZ1c2VTdGF0ZS0tPjxnIGNsYXNzPSJsaW5rIiBkYXRhLWVudGl0eS0xPSJTdGF0ZUNvbmZpZyIgZGF0YS1lbnRpdHktMj0iUmVmdXNlU3RhdGUiIGRhdGEtc291cmNlLWxpbmU9IjEyOSIgZGF0YS11aWQ9ImxuazIyIiBpZD0ibGlua19TdGF0ZUNvbmZpZ19SZWZ1c2VTdGF0ZSI+PHBhdGggY29kZUxpbmU9IjEyOSIgZD0iTTI0MTMuOTY2OSwxODEuOTM5OCBDMjQzMC45NjY5LDE4Ni4yMTk4IDI0MzYuMzUsMTg3LjA0IDI0NTMsMTkwIEMzMjU5LjQ4LDMzMy4yNSAzNDgzLjU2LDEzOC4yNSA0Mjk1LDI1MCBDNDMwMC43MSwyNTAuNzkgNDMwNi40NywyNTEuNjMgNDMxMi4yNiwyNTIuNTQiIGZpbGw9Im5vbmUiIGlkPSJTdGF0ZUNvbmZpZy1iYWNrdG8tUmVmdXNlU3RhdGUiIHN0eWxlPSJzdHJva2U6IzE4MTgxODtzdHJva2Utd2lkdGg6MTsiLz48cG9seWdvbiBmaWxsPSIjMTgxODE4IiBwb2ludHM9IjI0MDIuMzMsMTc5LjAxLDI0MDcuMTcxOCwxODQuMzUzOCwyNDEzLjk2NjksMTgxLjkzOTgsMjQwOS4xMjUsMTc2LjU5NTksMjQwMi4zMywxNzkuMDEiIHN0eWxlPSJzdHJva2U6IzE4MTgxODtzdHJva2Utd2lkdGg6MTsiLz48dGV4dCBmaWxsPSIjMDAwMDAwIiBmb250LWZhbWlseT0ic2Fucy1zZXJpZiIgZm9udC1zaXplPSIxMyIgbGVuZ3RoQWRqdXN0PSJzcGFjaW5nIiB0ZXh0TGVuZ3RoPSI2LjUiIHg9IjI0MDkuNzY0NyIgeT0iMTk0LjE3MTQiPjE8L3RleHQ+PHRleHQgZmlsbD0iIzAwMDAwMCIgZm9udC1mYW1pbHk9InNhbnMtc2VyaWYiIGZvbnQtc2l6ZT0iMTMiIGxlbmd0aEFkanVzdD0ic3BhY2luZyIgdGV4dExlbmd0aD0iNi41IiB4PSI0Mjk3LjU3NjciIHk9IjI0OS40NTU2Ij4xPC90ZXh0PjwvZz48IS0tcmV2ZXJzZSBsaW5rIFN0YXRlQ29uZmlnIHRvIEVkaXRpbmdTdGF0ZS0tPjxnIGNsYXNzPSJsaW5rIiBkYXRhLWVudGl0eS0xPSJTdGF0ZUNvbmZpZyIgZGF0YS1lbnRpdHktMj0iRWRpdGluZ1N0YXRlIiBkYXRhLXNvdXJjZS1saW5lPSIxMzAiIGRhdGEtdWlkPSJsbmsyMyIgaWQ9ImxpbmtfU3RhdGVDb25maWdfRWRpdGluZ1N0YXRlIj48cGF0aCBjb2RlTGluZT0iMTMwIiBkPSJNMTk0NC4wMDU5LDEzMC45MTM2IEMxNzUwLjA1NTksMTU4LjA2MzYgMTQ3My44MiwxOTkuODcgMTIyNSwyNTAgQzEyMTkuMzUsMjUxLjE0IDEyMTMuNjUsMjUyLjMxIDEyMDcuOTEsMjUzLjUxIiBmaWxsPSJub25lIiBpZD0iU3RhdGVDb25maWctYmFja3RvLUVkaXRpbmdTdGF0ZSIgc3R5bGU9InN0cm9rZTojMTgxODE4O3N0cm9rZS13aWR0aDoxOyIvPjxwb2x5Z29uIGZpbGw9IiMxODE4MTgiIHBvaW50cz0iMTk1NS44OSwxMjkuMjUsMTk0OS4zOTM0LDEyNi4xMjA0LDE5NDQuMDA1OSwxMzAuOTEzNiwxOTUwLjUwMjUsMTM0LjA0MzIsMTk1NS44OSwxMjkuMjUiIHN0eWxlPSJzdHJva2U6IzE4MTgxODtzdHJva2Utd2lkdGg6MTsiLz48dGV4dCBmaWxsPSIjMDAwMDAwIiBmb250LWZhbWlseT0ic2Fucy1zZXJpZiIgZm9udC1zaXplPSIxMyIgbGVuZ3RoQWRqdXN0PSJzcGFjaW5nIiB0ZXh0TGVuZ3RoPSI2LjUiIHg9IjE5NDEuNzczMiIgeT0iMTI5LjQyOTUiPjE8L3RleHQ+PHRleHQgZmlsbD0iIzAwMDAwMCIgZm9udC1mYW1pbHk9InNhbnMtc2VyaWYiIGZvbnQtc2l6ZT0iMTMiIGxlbmd0aEFkanVzdD0ic3BhY2luZyIgdGV4dExlbmd0aD0iNi41IiB4PSIxMjE1LjY5NzEiIHk9IjI1MC43MDEyIj4xPC90ZXh0PjwvZz48IS0tcmV2ZXJzZSBsaW5rIFN0YXRlQ29uZmlnIHRvIFBhc3NTdGF0ZS0tPjxnIGNsYXNzPSJsaW5rIiBkYXRhLWVudGl0eS0xPSJTdGF0ZUNvbmZpZyIgZGF0YS1lbnRpdHktMj0iUGFzc1N0YXRlIiBkYXRhLXNvdXJjZS1saW5lPSIxMzEiIGRhdGEtdWlkPSJsbmsyNCIgaWQ9ImxpbmtfU3RhdGVDb25maWdfUGFzc1N0YXRlIj48cGF0aCBjb2RlTGluZT0iMTMxIiBkPSJNMTk0NC41NjE0LDE4MS4zODc2IEMxODc3LjMyMTQsMjA0Ljg3NzYgMTgxNSwyMjYuNjUgMTc0OC4yMiwyNDkuOTciIGZpbGw9Im5vbmUiIGlkPSJTdGF0ZUNvbmZpZy1iYWNrdG8tUGFzc1N0YXRlIiBzdHlsZT0ic3Ryb2tlOiMxODE4MTg7c3Ryb2tlLXdpZHRoOjE7Ii8+PHBvbHlnb24gZmlsbD0iIzE4MTgxOCIgcG9pbnRzPSIxOTU1Ljg5LDE3Ny40MywxOTQ4LjkwNjUsMTc1LjYzMjYsMTk0NC41NjE0LDE4MS4zODc2LDE5NTEuNTQ0OSwxODMuMTg1LDE5NTUuODksMTc3LjQzIiBzdHlsZT0ic3Ryb2tlOiMxODE4MTg7c3Ryb2tlLXdpZHRoOjE7Ii8+PHRleHQgZmlsbD0iIzAwMDAwMCIgZm9udC1mYW1pbHk9InNhbnMtc2VyaWYiIGZvbnQtc2l6ZT0iMTMiIGxlbmd0aEFkanVzdD0ic3BhY2luZyIgdGV4dExlbmd0aD0iNi41IiB4PSIxOTQxLjc3MzIiIHk9IjE3OS4zNDEiPjE8L3RleHQ+PHRleHQgZmlsbD0iIzAwMDAwMCIgZm9udC1mYW1pbHk9InNhbnMtc2VyaWYiIGZvbnQtc2l6ZT0iMTMiIGxlbmd0aEFkanVzdD0ic3BhY2luZyIgdGV4dExlbmd0aD0iNi41IiB4PSIxNzY1LjU2ODMiIHk9IjI0MC4yMzM2Ij4xPC90ZXh0PjwvZz48IS0tcmV2ZXJzZSBsaW5rIFN0YXRlQ29uZmlnIHRvIE9wZW5TdGF0ZS0tPjxnIGNsYXNzPSJsaW5rIiBkYXRhLWVudGl0eS0xPSJTdGF0ZUNvbmZpZyIgZGF0YS1lbnRpdHktMj0iT3BlblN0YXRlIiBkYXRhLXNvdXJjZS1saW5lPSIxMzIiIGRhdGEtdWlkPSJsbmsyNSIgaWQ9ImxpbmtfU3RhdGVDb25maWdfT3BlblN0YXRlIj48cGF0aCBjb2RlTGluZT0iMTMyIiBkPSJNMjE2NC4wMzQzLDIwMS45OTM4IEMyMTYxLjE0NDMsMjIxLjc2MzggMjE1OS44NSwyMzAuNjIgMjE1Ny4wNiwyNDkuNzQiIGZpbGw9Im5vbmUiIGlkPSJTdGF0ZUNvbmZpZy1iYWNrdG8tT3BlblN0YXRlIiBzdHlsZT0ic3Ryb2tlOiMxODE4MTg7c3Ryb2tlLXdpZHRoOjE7Ii8+PHBvbHlnb24gZmlsbD0iIzE4MTgxOCIgcG9pbnRzPSIyMTY1Ljc3LDE5MC4xMiwyMTYwLjk0NDIsMTk1LjQ3ODMsMjE2NC4wMzQzLDIwMS45OTM4LDIxNjguODYwMSwxOTYuNjM1NSwyMTY1Ljc3LDE5MC4xMiIgc3R5bGU9InN0cm9rZTojMTgxODE4O3N0cm9rZS13aWR0aDoxOyIvPjx0ZXh0IGZpbGw9IiMwMDAwMDAiIGZvbnQtZmFtaWx5PSJzYW5zLXNlcmlmIiBmb250LXNpemU9IjEzIiBsZW5ndGhBZGp1c3Q9InNwYWNpbmciIHRleHRMZW5ndGg9IjYuNSIgeD0iMjE1OC40OTY2IiB5PSIyMTAuMjciPjE8L3RleHQ+PHRleHQgZmlsbD0iIzAwMDAwMCIgZm9udC1mYW1pbHk9InNhbnMtc2VyaWYiIGZvbnQtc2l6ZT0iMTMiIGxlbmd0aEFkanVzdD0ic3BhY2luZyIgdGV4dExlbmd0aD0iNi41IiB4PSIyMTUxLjkxNyIgeT0iMjQwLjQ5NTYiPjE8L3RleHQ+PC9nPjwhLS1yZXZlcnNlIGxpbmsgU3RhdGVDb25maWcgdG8gRG9pbmdTdGF0ZS0tPjxnIGNsYXNzPSJsaW5rIiBkYXRhLWVudGl0eS0xPSJTdGF0ZUNvbmZpZyIgZGF0YS1lbnRpdHktMj0iRG9pbmdTdGF0ZSIgZGF0YS1zb3VyY2UtbGluZT0iMTMzIiBkYXRhLXVpZD0ibG5rMjYiIGlkPSJsaW5rX1N0YXRlQ29uZmlnX0RvaW5nU3RhdGUiPjxwYXRoIGNvZGVMaW5lPSIxMzMiIGQ9Ik0yNDEzLjU2MzQsMTkwLjc0MSBDMjQ2Ny40NjM0LDIxMS43MTEgMjUxMy40MywyMjkuNTkgMjU2NS44NiwyNDkuOTgiIGZpbGw9Im5vbmUiIGlkPSJTdGF0ZUNvbmZpZy1iYWNrdG8tRG9pbmdTdGF0ZSIgc3R5bGU9InN0cm9rZTojMTgxODE4O3N0cm9rZS13aWR0aDoxOyIvPjxwb2x5Z29uIGZpbGw9IiMxODE4MTgiIHBvaW50cz0iMjQwMi4zOCwxODYuMzksMjQwNi41MjE0LDE5Mi4yOTMzLDI0MTMuNTYzNCwxOTAuNzQxLDI0MDkuNDIyLDE4NC44Mzc3LDI0MDIuMzgsMTg2LjM5IiBzdHlsZT0ic3Ryb2tlOiMxODE4MTg7c3Ryb2tlLXdpZHRoOjE7Ii8+PHRleHQgZmlsbD0iIzAwMDAwMCIgZm9udC1mYW1pbHk9InNhbnMtc2VyaWYiIGZvbnQtc2l6ZT0iMTMiIGxlbmd0aEFkanVzdD0ic3BhY2luZyIgdGV4dExlbmd0aD0iNi41IiB4PSIyNDA5LjgyNDYiIHk9IjIwNC40NjMxIj4xPC90ZXh0Pjx0ZXh0IGZpbGw9IiMwMDAwMDAiIGZvbnQtZmFtaWx5PSJzYW5zLXNlcmlmIiBmb250LXNpemU9IjEzIiBsZW5ndGhBZGp1c3Q9InNwYWNpbmciIHRleHRMZW5ndGg9IjYuNSIgeD0iMjUzOC4zMjUyIiB5PSIyNDAuMjQ0NyI+MTwvdGV4dD48L2c+PCEtLXJldmVyc2UgbGluayBTdGF0ZUNvbmZpZyB0byBDbG9zZVN0YXRlLS0+PGcgY2xhc3M9ImxpbmsiIGRhdGEtZW50aXR5LTE9IlN0YXRlQ29uZmlnIiBkYXRhLWVudGl0eS0yPSJDbG9zZVN0YXRlIiBkYXRhLXNvdXJjZS1saW5lPSIxMzQiIGRhdGEtdWlkPSJsbmsyNyIgaWQ9ImxpbmtfU3RhdGVDb25maWdfQ2xvc2VTdGF0ZSI+PHBhdGggY29kZUxpbmU9IjEzNCIgZD0iTTI0MTMuNzc1LDE4MC44MTg3IEMyNDMwLjg0NSwxODUuNDI4NyAyNDM2LjMzLDE4Ni40OCAyNDUzLDE5MCBDMjcyMS4yNywyNDYuNjggMjc5Ni43MywyMDMuODEgMzA2NywyNTAgQzMwNzIuNjgsMjUwLjk3IDMwNzguNDEsMjUxLjk5IDMwODQuMTgsMjUzLjA1IiBmaWxsPSJub25lIiBpZD0iU3RhdGVDb25maWctYmFja3RvLUNsb3NlU3RhdGUiIHN0eWxlPSJzdHJva2U6IzE4MTgxODtzdHJva2Utd2lkdGg6MTsiLz48cG9seWdvbiBmaWxsPSIjMTgxODE4IiBwb2ludHM9IjI0MDIuMTksMTc3LjY5LDI0MDYuOTM5NiwxODMuMTE2LDI0MTMuNzc1LDE4MC44MTg3LDI0MDkuMDI1NCwxNzUuMzkyNywyNDAyLjE5LDE3Ny42OSIgc3R5bGU9InN0cm9rZTojMTgxODE4O3N0cm9rZS13aWR0aDoxOyIvPjx0ZXh0IGZpbGw9IiMwMDAwMDAiIGZvbnQtZmFtaWx5PSJzYW5zLXNlcmlmIiBmb250LXNpemU9IjEzIiBsZW5ndGhBZGp1c3Q9InNwYWNpbmciIHRleHRMZW5ndGg9IjYuNSIgeD0iMjQxMC4zMTE5IiB5PSIxODEuNjY5NSI+MTwvdGV4dD48dGV4dCBmaWxsPSIjMDAwMDAwIiBmb250LWZhbWlseT0ic2Fucy1zZXJpZiIgZm9udC1zaXplPSIxMyIgbGVuZ3RoQWRqdXN0PSJzcGFjaW5nIiB0ZXh0TGVuZ3RoPSI2LjUiIHg9IjMwNzAuNDA4NiIgeT0iMjUwLjIyOSI+MTwvdGV4dD48L2c+PCEtLXJldmVyc2UgbGluayBTdGF0ZUNvbmZpZyB0byBTdGF0ZUhhbmRsZXJJbXBsLS0+PGcgY2xhc3M9ImxpbmsiIGRhdGEtZW50aXR5LTE9IlN0YXRlQ29uZmlnIiBkYXRhLWVudGl0eS0yPSJTdGF0ZUhhbmRsZXJJbXBsIiBkYXRhLXNvdXJjZS1saW5lPSIxMzciIGRhdGEtdWlkPSJsbmsyOCIgaWQ9ImxpbmtfU3RhdGVDb25maWdfU3RhdGVIYW5kbGVySW1wbCI+PHBhdGggY29kZUxpbmU9IjEzNyIgZD0iTTE5MzcuNzEwOCwxMTEuOTUxNyBDMTYzMi4zOTA4LDEyOS44MjE3IDEwODYuMywxNjkuOTIgNjExLDI1MCBDNjA1LjExLDI1MC45OSA1OTkuMTcsMjUyLjAzIDU5My4xOCwyNTMuMTIiIGZpbGw9Im5vbmUiIGlkPSJTdGF0ZUNvbmZpZy1iYWNrdG8tU3RhdGVIYW5kbGVySW1wbCIgc3R5bGU9InN0cm9rZTojMTgxODE4O3N0cm9rZS13aWR0aDoxOyIvPjxwb2x5Z29uIGZpbGw9Im5vbmUiIHBvaW50cz0iMTk1NS42OCwxMTAuOSwxOTM3LjM2MDIsMTA1Ljk2MiwxOTM4LjA2MTMsMTE3Ljk0MTUsMTk1NS42OCwxMTAuOSIgc3R5bGU9InN0cm9rZTojMTgxODE4O3N0cm9rZS13aWR0aDoxOyIvPjwvZz48IS0tU1JDPVt4UGRGSnppbTVDVmwtSWlpVGszN2VEQms1TDg1UUFpNE9raC0wZkV5NWVsTVpjb2Q0VzlrSjFnTlFVU1RUanFEV0pZWDdsWGRBRnF0bzB5ZFRqZ2E3RUJTZDRsaVY5LVZ1dlVGeXM5ZDR5dGxfeHUtdG9xVVBud1g0bFdHLXUzd0ZvSU15MHRKTzBtU05OYWVGWndaME9YZUIxN2M3OUNIZEcyTE15VUNaWDNzOVBhSVVUYUZUajRIWklSVDBxUTVuNUlBSmF6OWdSenp2NFVTbnlzSU1ZSXNvc3h6U18wbGxjQ1hoM2lUbTMwSXE4QlJBUmttd3RSQ3hEdWQydTdRejFTbUdhU0Q3VHZ1N1p1SmFpU0V1Vzc3cG5sckwzTXJMeEh6R2x0U3BHMTI5ZVhhX0JCZUw1ekl6dFVMa3hvbklvYmlydFBXV3pVRnQzU2N6LUNFNlpBeWhlRTZEQXpudFAzaERQd1I0V3VmdTFkTlFKcmtEMklaV2tlSjc3Uk5FamlqSnVUejk5QkpMeXdZS0JkZVFSQXA2T0VOQllZeFdvSi1jT0xWNTlMc2MwbXBxdUFZZ0JJWldDWDIxUUVZekRDdS05ZDh5ZjlJYWpjR0FNNVVLYWU2U2dQbk5MUUZPU2Y4VzBXYlNjaXZVWWU1eklWWHNBS1hidVJpZlk2TFZQUWRLb2tTR0drT0dJa0tHSWtHV01ONm0ydllPOWFtQ21zT3hweDdiY0ZCOWJrYk5FdFdTZDNQWDRqX3BaY283NWFzb1Q5QjI0VU04eWljTVNSMnJnN2JxQkE5Ymg2VnVqMW9RRGIxUXBGX19wQnhfdFJ0Q2xfdmo3WVFVVUtEeVV4cnRqeEFCYU1MWlI3R2g5QkRqS0FMTmRwa0xPYjVuZ3VJektrdElqTnBIV3p0Vmx6bHlWajEzUlZ5andieHRVY2lSRndQV1JnVF9fY2JNZmV4aDFqVkRqMUV0NXJvTmViTWRRNFBpWmdSS2pwZ1o3Sm13WW5xMUVpaVozM01jTEo1aWVJRXNKMkRfZDhhdG00MF0tLT48L2c+PC9zdmc+;" vertex="1" parent="WIyWlLk6GJQsqaUBKTNV-1">
            <mxGeometry x="-2040" y="90" width="4898" height="409" as="geometry" />
          </mxCell>
        </UserObject>
      </root>
    </mxGraphModel>
  </diagram>
</mxfile>
